<?xml version="1.0" encoding="UTF-8" standalone="no"?>
<!-- Created with Inkscape (http://www.inkscape.org/) -->

<svg
   xmlns:dc="http://purl.org/dc/elements/1.1/"
   xmlns:cc="http://creativecommons.org/ns#"
   xmlns:rdf="http://www.w3.org/1999/02/22-rdf-syntax-ns#"
   xmlns:svg="http://www.w3.org/2000/svg"
   xmlns="http://www.w3.org/2000/svg"
   xmlns:sodipodi="http://sodipodi.sourceforge.net/DTD/sodipodi-0.dtd"
   xmlns:inkscape="http://www.inkscape.org/namespaces/inkscape"
   width="225"
   height="455"
   id="svg2"
   version="1.1"
   inkscape:version="0.48.4 r9939"
   sodipodi:docname="chara6.svg">
  <defs
     id="defs4" />
  <sodipodi:namedview
     id="base"
     pagecolor="#ffffff"
     bordercolor="#666666"
     borderopacity="1.0"
     inkscape:pageopacity="0.0"
     inkscape:pageshadow="2"
     inkscape:zoom="3.959798"
     inkscape:cx="-0.9359627"
     inkscape:cy="202.69303"
     inkscape:document-units="px"
     inkscape:current-layer="layer1"
     showgrid="false"
     showguides="true"
     inkscape:guide-bbox="true"
     inkscape:window-width="1863"
     inkscape:window-height="1056"
     inkscape:window-x="57"
     inkscape:window-y="24"
     inkscape:window-maximized="1">
    <sodipodi:guide
       orientation="0,1"
       position="550.53314,456.58895"
       id="guide4240" />
  </sodipodi:namedview>
  <metadata
     id="metadata7">
    <rdf:RDF>
      <cc:Work
         rdf:about="">
        <dc:format>image/svg+xml</dc:format>
        <dc:type
           rdf:resource="http://purl.org/dc/dcmitype/StillImage" />
        <dc:title></dc:title>
      </cc:Work>
    </rdf:RDF>
  </metadata>
  <g
     inkscape:label="Ebene 1"
     inkscape:groupmode="layer"
     id="layer1"
     transform="translate(0,-597.36641)">
    <path
       style="fill:#502d16;stroke:none"
       d="m 74.7667,622.75754 c 22.0732,-12.26913 54.3797,-7.0425 76.2666,5.55584 28.1797,16.22051 48.2517,44.48039 48.4873,78.7919 0.2769,40.3174 -8.3199,39.94932 -18.6879,57.07362 -4.748,7.84207 -19.1929,19.69797 -19.1929,19.69797 0,0 1.9973,-7.35022 2.5254,-11.11168 0.422,-3.00565 0.5051,-9.09137 0.5051,-9.09137 0,0 -2.7826,6.78182 -5.0508,9.59645 -3.4491,4.28004 -12.6269,10.6066 -12.6269,10.6066 0,0 0.9893,-4.6902 1.0102,-7.07107 0.012,-1.3573 -0.5051,-4.04061 -0.5051,-4.04061 0,0 -4.1225,4.9874 -6.0609,7.57615 -1.2318,1.64501 -3.5355,5.05076 -3.5355,5.05076 0,0 -4.3805,-2.35111 -6.566,-3.53553 -3.7093,-2.01029 -11.1117,-6.06092 -11.1117,-6.06092 l -27.2741,10.10153 c 0,0 -6.3527,-2.9805 -8.5863,-5.55584 -1.5794,-1.82105 -3.0305,-6.566 -3.0305,-6.566 0,0 -2.7801,2.41817 -3.5355,4.04061 -0.9347,2.0075 -1.0102,6.566 -1.0102,6.566 0,0 -7.0845,-7.40349 -8.5863,-12.12183 -0.7149,-2.246 0,-7.07107 0,-7.07107 0,0 -2.6419,6.95018 -3.0304,10.6066 -0.2674,2.51682 0.5051,7.57614 0.5051,7.57614 0,0 -12.9142,-12.45809 -17.1726,-20.20305 -2.463,-4.47965 -4.5457,-14.64721 -4.5457,-14.64721 0,0 -2.0996,5.29131 -2.5254,8.08122 -0.5334,3.49507 0,10.6066 0,10.6066 0,0 -6.6909,-16.567 -8.5863,-25.25381 -3.1749,-14.55051 -6.1553,-25.43303 -4.5457,-44.44671 2.4748,-29.23433 20.8233,-60.49751 46.467,-74.75129 z"
       id="path4140"
       inkscape:connector-curvature="0"
       sodipodi:nodetypes="sssscscscscscsccscscscscscscsss" />
    <rect
       style="fill:#e9c6af;fill-opacity:1;fill-rule:nonzero;stroke:none"
       id="rect4114"
       width="42.564953"
       height="28.820019"
       x="92.396248"
       y="776.44867" />
    <path
       style="fill:#e9c6af;fill-opacity:1;stroke:none"
       d="m 38.303188,689.10188 c 1.268045,122.58408 152.586562,119.42001 150.750912,1.77354 -0.49988,-32.04002 -76.26218,-71.82836 -76.26218,-71.82836 0,0 -74.770237,42.83631 -74.488732,70.05482 z"
       id="path4116"
       inkscape:connector-curvature="0"
       sodipodi:nodetypes="sscs" />
    <path
       style="fill:#000444;fill-opacity:1;stroke:none"
       d="m 91.9427,789.72291 21.7342,16.07689 21.2912,-14.60279 c 0,0 37.7155,-1.82621 46.425,8.84456 6.6807,8.18511 0.4436,31.69305 0.4436,31.69305 0,0 -3.7466,16.65192 -7.2812,36.49478 -4.5204,25.37693 -4.5563,34.75616 -6.0818,54.03127 -2.4678,31.18043 -1.7573,53.47688 -2.4553,79.87093 -0.3687,13.9468 1.13,39.8055 1.13,39.8055 l 4.4379,9.8537 -35.9292,0 -14.8817,-84.24943 -12.8666,0 -12.492,84.24943 -37.6993,0 4.8797,-10.8844 c 0,0 0.7438,-25.9245 1.0064,-40.29 0.6239,-34.1304 0.096,-44.8804 -0.1125,-75.32527 -0.1371,-19.98116 -3.6214,-31.79925 -9.42,-57.56681 -2.694,-11.97132 -10.3129,-34.84233 -10.3129,-34.84233 0,0 -6.8703,-24.4984 4e-4,-33.15464 8.2109,-10.34478 48.1841,-10.00444 48.1841,-10.00444 z"
       id="path4118"
       inkscape:connector-curvature="0"
       sodipodi:nodetypes="cccscsssccccccccssscsc" />
    <path
       sodipodi:type="arc"
       style="fill:#000000;fill-opacity:1;fill-rule:nonzero;stroke:none"
       id="path4120"
       sodipodi:cx="268.21429"
       sodipodi:cy="367.36218"
       sodipodi:rx="12.5"
       sodipodi:ry="12.857142"
       d="m 280.71429,367.36218 c 0,7.10081 -5.59644,12.85715 -12.5,12.85715 -6.90355,0 -12.5,-5.75634 -12.5,-12.85715 0,-7.1008 5.59645,-12.85714 12.5,-12.85714 6.90356,0 12.5,5.75634 12.5,12.85714 z"
       transform="matrix(0.6207389,0,0,0.6207389,-92.0519,497.86683)" />
    <path
       d="m 280.71429,367.36218 c 0,7.10081 -5.59644,12.85715 -12.5,12.85715 -6.90355,0 -12.5,-5.75634 -12.5,-12.85715 0,-7.1008 5.59645,-12.85714 12.5,-12.85714 6.90356,0 12.5,5.75634 12.5,12.85714 z"
       sodipodi:ry="12.857142"
       sodipodi:rx="12.5"
       sodipodi:cy="367.36218"
       sodipodi:cx="268.21429"
       id="path4122"
       style="fill:#000000;fill-opacity:1;fill-rule:nonzero;stroke:none"
       sodipodi:type="arc"
       transform="matrix(0.6207389,0,0,0.6207389,-15.3463,497.42345)" />
    <path
       transform="matrix(0.71100785,0,0,0.71100785,-135.0567,468.14704)"
       d="m 470.00001,350.93362 c 0,9.07325 -7.51522,16.42858 -16.78572,16.42858 -9.27049,0 -16.78571,-7.35533 -16.78571,-16.42858 0,-9.07325 7.51522,-16.42857 16.78571,-16.42857 9.2705,0 16.78572,7.35532 16.78572,16.42857 z"
       sodipodi:ry="16.428572"
       sodipodi:rx="16.785715"
       sodipodi:cy="350.93362"
       sodipodi:cx="453.21429"
       id="path4124"
       style="fill:#e9c6af;fill-opacity:1;fill-rule:nonzero;stroke:none"
       sodipodi:type="arc" />
    <path
       sodipodi:type="arc"
       style="fill:#e9c6af;fill-opacity:1;fill-rule:nonzero;stroke:none"
       id="path4126"
       sodipodi:cx="453.21429"
       sodipodi:cy="350.93362"
       sodipodi:rx="16.785715"
       sodipodi:ry="16.428572"
       d="m 470.00001,350.93362 c 0,9.07325 -7.51522,16.42858 -16.78572,16.42858 -9.27049,0 -16.78571,-7.35533 -16.78571,-16.42858 0,-9.07325 7.51522,-16.42857 16.78571,-16.42857 9.2705,0 16.78572,7.35532 16.78572,16.42857 z"
       transform="matrix(0.71100785,0,0,0.71100785,-282.53895,468.14704)" />
    <path
       style="fill:#502d16;fill-opacity:1;stroke:none"
       d="m 106.5865,637.90983 c 0,0 -12.4937,-8.23699 -16.1624,-5.05077 -8.0717,7.01023 -24.7052,28.97767 -32.83,45.96195 -6.4869,13.56036 -12.1218,43.43656 -12.1218,43.43656 0,0 -6.8594,-12.01196 -8.0812,-18.68783 -1.9722,-10.77598 -2.8172,-22.76808 1.5152,-32.82995 10.2653,-23.84067 48.7089,-54.24859 54.0432,-56.06347 6.6121,-2.24962 19.1928,5.05076 19.1928,5.05076 0,0 9.0447,-4.81589 13.6371,-5.05076 4.3364,-0.22178 49.7557,30.79828 62.6295,55.55839 5.472,10.52426 5.3395,23.56485 4.0406,35.35534 -2.029,18.41721 -18.1827,52.52793 -18.1827,52.52793 0,0 4.7308,-34.53166 2.0202,-47.98225 -9.2458,-45.88088 -41.6503,-71.518 -50.5076,-77.27667 -4.0714,-2.64702 -14.1421,6.06092 -14.1421,6.06092 z"
       id="path4138"
       inkscape:connector-curvature="0"
       sodipodi:nodetypes="csscssscssscsscc" />
    <path
       sodipodi:nodetypes="csscscscscscsc"
       inkscape:connector-curvature="0"
       id="path4142"
       d="m 87.9021,789.21784 c 0,0 -0.3724,-8.70423 3.0464,-8.16678 20.7938,3.26885 21.5759,2.87691 44.7382,-0.7354 7.66,-1.19462 3.0695,9.36612 3.0695,9.36612 0,0 33.9274,-0.31098 42.6369,10.35979 6.6807,8.18511 0.4436,31.69305 0.4436,31.69305 0,0 -3.7466,16.65192 -7.2812,36.49478 -4.5204,25.37693 -2.0309,32.23078 -3.5564,51.50589 7.3616,53.53958 -10.2899,45.13475 -58.0351,43.70617 -43.343,-1.29685 -57.4919,13.72543 -53.0084,-38.65541 -0.1371,-19.98116 -0.086,-31.29417 -5.8845,-57.06173 -2.694,-11.97132 -10.3129,-34.84233 -10.3129,-34.84233 0,0 -6.8703,-24.4984 4e-4,-33.15464 8.2109,-10.34478 44.1435,-10.50951 44.1435,-10.50951 z"
       style="fill:#aade87;fill-opacity:1;stroke:none" />
    <g
       id="g4150"
       transform="matrix(1.6752201,0,0,1.6752201,-2027.0311,178.71405)">
      <rect
         transform="translate(0,308.2677)"
         y="10.723734"
         x="1240.9724"
         height="16.667517"
         width="30.809652"
         id="rect4144"
         style="fill:none;stroke:#000000;stroke-opacity:1" />
      <rect
         style="fill:none;stroke:#000000;stroke-opacity:1"
         id="rect4148"
         width="30.809652"
         height="16.667517"
         x="1280.9724"
         y="318.99142" />
    </g>
    <path
       style="fill:none;stroke:#000000;stroke-width:1px;stroke-linecap:butt;stroke-linejoin:miter;stroke-opacity:1"
       d="m 103.051,727.8134 8.5863,-3.03045 7.0711,2.0203 -7.5762,-2.52538 z"
       id="path4154"
       inkscape:connector-curvature="0" />
    <path
       style="fill:#aade87;fill-opacity:1;stroke:none"
       d="m 181.3378,799.64552 -7.071,30.80966 c 0,0 7.9991,13.35188 6.3134,20.20305 -0.512,2.0808 -15.1523,5.3033 -15.1523,5.3033 l -0.5051,23.48605 c 0,0 33.75001,-7.86699 37.8808,-21.97082 5.62458,-19.20409 -21.4658,-57.83124 -21.4658,-57.83124 z"
       id="path4238"
       inkscape:connector-curvature="0"
       sodipodi:nodetypes="ccsccsc" />
    <path
       style="fill:#aade87;fill-opacity:1;stroke:none"
       d="m 42.6944,801.16076 c 0,0 -32.13682,40.22429 -23.2335,59.599 6.459958,14.05765 43.689108,18.18274 43.689108,18.18274 L 57.08903,855.45646 c 0,0 -11.32773,-5.31709 -11.61673,-8.08122 -0.5999,-5.73855 6.8185,-15.90991 6.8185,-15.90991 z"
       id="path4236"
       inkscape:connector-curvature="0"
       sodipodi:nodetypes="csccscc" />
  </g>
</svg>
