<?xml version="1.0" encoding="UTF-8" standalone="no"?>
<!-- Created with Inkscape (http://www.inkscape.org/) -->

<svg
   xmlns:dc="http://purl.org/dc/elements/1.1/"
   xmlns:cc="http://creativecommons.org/ns#"
   xmlns:rdf="http://www.w3.org/1999/02/22-rdf-syntax-ns#"
   xmlns:svg="http://www.w3.org/2000/svg"
   xmlns="http://www.w3.org/2000/svg"
   xmlns:sodipodi="http://sodipodi.sourceforge.net/DTD/sodipodi-0.dtd"
   xmlns:inkscape="http://www.inkscape.org/namespaces/inkscape"
   width="225"
   height="455"
   id="svg2"
   version="1.1"
   inkscape:version="0.48.4 r9939"
   sodipodi:docname="chara4.svg">
  <defs
     id="defs4" />
  <sodipodi:namedview
     id="base"
     pagecolor="#ffffff"
     bordercolor="#666666"
     borderopacity="1.0"
     inkscape:pageopacity="0.0"
     inkscape:pageshadow="2"
     inkscape:zoom="0.98994949"
     inkscape:cx="381.34279"
     inkscape:cy="294.02481"
     inkscape:document-units="px"
     inkscape:current-layer="layer1"
     showgrid="false"
     showguides="true"
     inkscape:guide-bbox="true"
     inkscape:window-width="1863"
     inkscape:window-height="1056"
     inkscape:window-x="57"
     inkscape:window-y="24"
     inkscape:window-maximized="1">
    <sodipodi:guide
       orientation="0,1"
       position="550.53314,456.58895"
       id="guide4240" />
  </sodipodi:namedview>
  <metadata
     id="metadata7">
    <rdf:RDF>
      <cc:Work
         rdf:about="">
        <dc:format>image/svg+xml</dc:format>
        <dc:type
           rdf:resource="http://purl.org/dc/dcmitype/StillImage" />
        <dc:title></dc:title>
      </cc:Work>
    </rdf:RDF>
  </metadata>
  <g
     inkscape:label="Ebene 1"
     inkscape:groupmode="layer"
     id="layer1"
     transform="translate(0,-597.36641)">
    <path
       style="fill:#502d16;stroke:none"
       d="m 306.7667,622.75754 c 22.0732,-12.26913 54.3797,-7.0425 76.2666,5.55584 28.1797,16.22051 48.2517,44.48039 48.4873,78.7919 0.2769,40.3174 -8.3199,39.94932 -18.6879,57.07362 -4.748,7.84207 -19.1929,19.69797 -19.1929,19.69797 0,0 1.9973,-7.35022 2.5254,-11.11168 0.422,-3.00565 0.5051,-9.09137 0.5051,-9.09137 0,0 -2.7826,6.78182 -5.0508,9.59645 -3.4491,4.28004 -12.6269,10.6066 -12.6269,10.6066 0,0 0.9893,-4.6902 1.0102,-7.07107 0.012,-1.3573 -0.5051,-4.04061 -0.5051,-4.04061 0,0 -4.1225,4.9874 -6.0609,7.57615 -1.2318,1.64501 -3.5355,5.05076 -3.5355,5.05076 0,0 -4.3805,-2.35111 -6.566,-3.53553 -3.7093,-2.01029 -11.1117,-6.06092 -11.1117,-6.06092 l -27.2741,10.10153 c 0,0 -6.3527,-2.9805 -8.5863,-5.55584 -1.5794,-1.82105 -3.0305,-6.566 -3.0305,-6.566 0,0 -2.7801,2.41817 -3.5355,4.04061 -0.9347,2.0075 -1.0102,6.566 -1.0102,6.566 0,0 -7.0845,-7.40349 -8.5863,-12.12183 -0.7149,-2.246 0,-7.07107 0,-7.07107 0,0 -2.6419,6.95018 -3.0304,10.6066 -0.2674,2.51682 0.5051,7.57614 0.5051,7.57614 0,0 -12.9142,-12.45809 -17.1726,-20.20305 -2.463,-4.47965 -4.5457,-14.64721 -4.5457,-14.64721 0,0 -2.0996,5.29131 -2.5254,8.08122 -0.5334,3.49507 0,10.6066 0,10.6066 0,0 -6.6909,-16.567 -8.5863,-25.25381 -3.1749,-14.55051 -6.1553,-25.43303 -4.5457,-44.44671 2.4748,-29.23433 20.8233,-60.49751 46.467,-74.75129 z"
       id="path4140"
       inkscape:connector-curvature="0"
       sodipodi:nodetypes="sssscscscscscsccscscscscscscsss" />
    <path
       style="fill:#ffe162;fill-opacity:1;stroke:none"
       d="m -33.14963,659.62811 c -13.14126,-26.55025 -47.65223,-44.95879 -77.27668,-44.95179 -28.34233,0.007 -61.76506,17.97363 -72.73098,41.41625 -14.92501,31.90627 -1.69235,86.22242 28.28427,109.60155 27.61344,21.53607 69.46715,19.65091 96.97465,-2.0203 29.38159,-23.14768 41.34117,-70.52282 24.74874,-104.04571 z"
       id="path4100"
       inkscape:connector-curvature="0"
       sodipodi:nodetypes="ssssss" />
    <g
       id="g4055"
       transform="translate(-933.70063,419.42857)">
      <path
         transform="translate(3.5355339,303.72201)"
         d="m 664.68036,35.472473 c 0,8.647324 -7.34924,15.657365 -16.41498,15.657365 -9.06574,0 -16.41498,-7.010041 -16.41498,-15.657365 0,-8.647324 7.34924,-15.657365 16.41498,-15.657365 9.06574,0 16.41498,7.010041 16.41498,15.657365 z"
         sodipodi:ry="15.657365"
         sodipodi:rx="16.414978"
         sodipodi:cy="35.472473"
         sodipodi:cx="648.26538"
         id="path3988"
         style="fill:#502d16;fill-opacity:1;fill-rule:nonzero;stroke:none"
         sodipodi:type="arc" />
      <path
         transform="translate(0,308.2677)"
         d="m 678.82249,13.249116 c 0,6.415756 -4.97486,11.616754 -11.11167,11.616754 -6.13681,0 -11.11168,-5.200998 -11.11168,-11.616754 0,-6.4157564 4.97487,-11.6167546 11.11168,-11.6167546 6.13681,0 11.11167,5.2009982 11.11167,11.6167546 z"
         sodipodi:ry="11.616755"
         sodipodi:rx="11.111678"
         sodipodi:cy="13.249116"
         sodipodi:cx="667.71082"
         id="path3990"
         style="fill:#502d16;fill-opacity:1;fill-rule:nonzero;stroke:none"
         sodipodi:type="arc" />
      <path
         transform="translate(5.555839,303.72201)"
         d="m 561.64481,42.543541 c 0,6.973648 -7.4623,12.626906 -16.66752,12.626906 -9.20521,0 -16.66751,-5.653258 -16.66751,-12.626906 0,-6.973648 7.4623,-12.626906 16.66751,-12.626906 9.20522,0 16.66752,5.653258 16.66752,12.626906 z"
         sodipodi:ry="12.626906"
         sodipodi:rx="16.667517"
         sodipodi:cy="42.543541"
         sodipodi:cx="544.97729"
         id="path4002"
         style="fill:#502d16;fill-opacity:1;fill-rule:nonzero;stroke:none"
         sodipodi:type="arc" />
      <path
         transform="translate(4.5456865,307.25755)"
         d="m 538.41128,26.128561 c 0,10.181526 -8.59295,18.435284 -19.1929,18.435284 -10.59994,0 -19.19289,-8.253758 -19.19289,-18.435284 0,-10.181526 8.59295,-18.4352836 19.19289,-18.4352836 10.59995,0 19.1929,8.2537576 19.1929,18.4352836 z"
         sodipodi:ry="18.435284"
         sodipodi:rx="19.192898"
         sodipodi:cy="26.128561"
         sodipodi:cx="519.21838"
         id="path4004"
         style="fill:#502d16;fill-opacity:1;fill-rule:nonzero;stroke:none"
         sodipodi:type="arc" />
      <path
         transform="translate(5.555839,304.73217)"
         d="m 520.22855,-20.085918 c 0,16.1788632 -10.74119,29.2944236 -23.99112,29.2944236 -13.24993,0 -23.99113,-13.1155604 -23.99113,-29.2944236 0,-16.178864 10.7412,-29.294424 23.99113,-29.294424 13.24993,0 23.99112,13.11556 23.99112,29.294424 z"
         sodipodi:ry="29.294424"
         sodipodi:rx="23.991123"
         sodipodi:cy="-20.085918"
         sodipodi:cx="496.23743"
         id="path4008"
         style="fill:#502d16;fill-opacity:1;fill-rule:nonzero;stroke:none"
         sodipodi:type="arc" />
      <path
         transform="matrix(1.1647059,0,0,1.3375,-118.41959,312.3319)"
         d="m 697.51036,-35.238205 c 0,11.157837 -9.61054,20.203051 -21.46574,20.203051 -11.85521,0 -21.46575,-9.045214 -21.46575,-20.203051 0,-11.157837 9.61054,-20.203051 21.46575,-20.203051 11.8552,0 21.46574,9.045214 21.46574,20.203051 z"
         sodipodi:ry="20.203051"
         sodipodi:rx="21.465742"
         sodipodi:cy="-35.238205"
         sodipodi:cx="676.04462"
         id="path3994"
         style="fill:#502d16;fill-opacity:1;fill-rule:nonzero;stroke:none"
         sodipodi:type="arc" />
      <path
         transform="translate(-2.0203051,308.77278)"
         d="m 702.05604,-8.9742403 c 0,8.64732382 -7.57537,15.6573648 -16.92005,15.6573648 -9.34469,0 -16.92006,-7.01004098 -16.92006,-15.6573648 0,-8.6473237 7.57537,-15.6573647 16.92006,-15.6573647 9.34468,0 16.92005,7.010041 16.92005,15.6573647 z"
         sodipodi:ry="15.657365"
         sodipodi:rx="16.920055"
         sodipodi:cy="-8.9742403"
         sodipodi:cx="685.13599"
         id="path3992"
         style="fill:#502d16;fill-opacity:1;fill-rule:nonzero;stroke:none"
         sodipodi:type="arc" />
      <path
         transform="translate(0.50507627,305.74232)"
         d="m 678.82254,-69.83593 c 0,4.881554 -3.95728,8.838835 -8.83884,8.838835 -4.88155,0 -8.83883,-3.957281 -8.83883,-8.838835 0,-4.881554 3.95728,-8.838835 8.83883,-8.838835 4.88156,0 8.83884,3.957281 8.83884,8.838835 z"
         sodipodi:ry="8.8388348"
         sodipodi:rx="8.8388348"
         sodipodi:cy="-69.83593"
         sodipodi:cx="669.9837"
         id="path3996"
         style="fill:#502d16;fill-opacity:1;fill-rule:nonzero;stroke:none"
         sodipodi:type="arc" />
      <path
         transform="translate(-3.0304576,309.27785)"
         d="m 674.27684,-90.54406 c 0,10.460473 -10.96732,18.940361 -24.4962,18.940361 -13.52888,0 -24.4962,-8.479888 -24.4962,-18.940361 0,-10.46047 10.96732,-18.94036 24.4962,-18.94036 13.52888,0 24.4962,8.47989 24.4962,18.94036 z"
         sodipodi:ry="18.940361"
         sodipodi:rx="24.496199"
         sodipodi:cy="-90.54406"
         sodipodi:cx="649.78064"
         id="path3998"
         style="fill:#502d16;fill-opacity:1;fill-rule:nonzero;stroke:none"
         sodipodi:type="arc" />
      <path
         transform="translate(0,308.2677)"
         d="m 644.47735,-108.22173 c 0,7.11312 -7.12311,12.879442 -15.90991,12.879442 -8.78679,0 -15.9099,-5.766322 -15.9099,-12.879442 0,-7.11312 7.12311,-12.87945 15.9099,-12.87945 8.7868,0 15.90991,5.76633 15.90991,12.87945 z"
         sodipodi:ry="12.879445"
         sodipodi:rx="15.909903"
         sodipodi:cy="-108.22173"
         sodipodi:cx="628.56744"
         id="path4000"
         style="fill:#502d16;fill-opacity:1;fill-rule:nonzero;stroke:none"
         sodipodi:type="arc" />
      <path
         transform="translate(0,308.2677)"
         d="m 513.66258,12.238963 c 0,4.742081 -4.18342,8.586297 -9.34392,8.586297 -5.1605,0 -9.34391,-3.844216 -9.34391,-8.586297 0,-4.7420808 4.18341,-8.5862969 9.34391,-8.5862969 5.1605,0 9.34392,3.8442161 9.34392,8.5862969 z"
         sodipodi:ry="8.586297"
         sodipodi:rx="9.3439112"
         sodipodi:cy="12.238963"
         sodipodi:cx="504.31866"
         id="path4006"
         style="fill:#502d16;fill-opacity:1;fill-rule:nonzero;stroke:none"
         sodipodi:type="arc" />
      <path
         transform="translate(5.0507627,310.79308)"
         d="m 514.67273,-62.259789 c 0,6.834176 -5.31406,12.374369 -11.86929,12.374369 -6.55523,0 -11.8693,-5.540193 -11.8693,-12.374369 0,-6.834175 5.31407,-12.374368 11.8693,-12.374368 6.55523,0 11.86929,5.540193 11.86929,12.374368 z"
         sodipodi:ry="12.374369"
         sodipodi:rx="11.869292"
         sodipodi:cy="-62.259789"
         sodipodi:cx="502.80344"
         id="path4010"
         style="fill:#502d16;fill-opacity:1;fill-rule:nonzero;stroke:none"
         sodipodi:type="arc" />
      <path
         transform="translate(0,308.2677)"
         d="m 536.39098,-80.695068 c 0,9.763107 -8.47988,17.677669 -18.94036,17.677669 -10.46047,0 -18.94036,-7.914562 -18.94036,-17.677669 0,-9.763108 8.47989,-17.67767 18.94036,-17.67767 10.46048,0 18.94036,7.914562 18.94036,17.67767 z"
         sodipodi:ry="17.67767"
         sodipodi:rx="18.940361"
         sodipodi:cy="-80.695068"
         sodipodi:cx="517.45062"
         id="path4012"
         style="fill:#502d16;fill-opacity:1;fill-rule:nonzero;stroke:none"
         sodipodi:type="arc" />
      <path
         transform="translate(0,308.2677)"
         d="m 543.46206,-96.352432 c 0,4.463135 -3.95728,8.08122 -8.83883,8.08122 -4.88155,0 -8.83883,-3.618085 -8.83883,-8.08122 0,-4.463138 3.95728,-8.081218 8.83883,-8.081218 4.88155,0 8.83883,3.61808 8.83883,8.081218 z"
         sodipodi:ry="8.0812206"
         sodipodi:rx="8.8388348"
         sodipodi:cy="-96.352432"
         sodipodi:cx="534.62323"
         id="path4014"
         style="fill:#502d16;fill-opacity:1;fill-rule:nonzero;stroke:none"
         sodipodi:type="arc" />
      <path
         transform="translate(0.50507627,305.74232)"
         d="m 575.78697,-103.67604 c 0,8.50785 -9.04521,15.404826 -20.20305,15.404826 -11.15783,0 -20.20305,-6.896976 -20.20305,-15.404826 0,-8.50785 9.04522,-15.40483 20.20305,-15.40483 11.15784,0 20.20305,6.89698 20.20305,15.40483 z"
         sodipodi:ry="15.404826"
         sodipodi:rx="20.203051"
         sodipodi:cy="-103.67604"
         sodipodi:cx="555.58392"
         id="path4016"
         style="fill:#502d16;fill-opacity:1;fill-rule:nonzero;stroke:none"
         sodipodi:type="arc" />
      <path
         transform="translate(0,308.2677)"
         d="m 601.04076,-115.29279 c 0,8.2289 -7.1231,14.89975 -15.9099,14.89975 -8.7868,0 -15.9099,-6.67085 -15.9099,-14.89975 0,-8.22891 7.1231,-14.89975 15.9099,-14.89975 8.7868,0 15.9099,6.67084 15.9099,14.89975 z"
         sodipodi:ry="14.89975"
         sodipodi:rx="15.909903"
         sodipodi:cy="-115.29279"
         sodipodi:cx="585.13086"
         id="path4018"
         style="fill:#502d16;fill-opacity:1;fill-rule:nonzero;stroke:none"
         sodipodi:type="arc" />
      <path
         transform="translate(0,308.2677)"
         d="m 617.70829,-113.01995 c 0,5.57892 -4.74874,10.10152 -10.60661,10.10152 -5.85786,0 -10.6066,-4.5226 -10.6066,-10.10152 0,-5.57892 4.74874,-10.10153 10.6066,-10.10153 5.85787,0 10.60661,4.52261 10.60661,10.10153 z"
         sodipodi:ry="10.101525"
         sodipodi:rx="10.606602"
         sodipodi:cy="-113.01995"
         sodipodi:cx="607.10168"
         id="path4020"
         style="fill:#502d16;fill-opacity:1;fill-rule:nonzero;stroke:none"
         sodipodi:type="arc" />
    </g>
    <path
       style="fill:#502d16;fill-opacity:1;stroke:none"
       d="m -392.25887,774.7855 122.22846,-11.11168 25.25382,-86.87312 -37.37565,-57.07362 -90.91373,-9.59645 -60.10407,52.02286 5.55584,85.35789 z"
       id="path3961"
       inkscape:connector-curvature="0" />
    <path
       style="fill:#be8ca0;fill-opacity:1;stroke:none"
       d="m -650.85791,637.40475 c 42.18274,-31.86403 94.53382,-31.95028 135.86551,1.01015 8.55925,6.82567 20.61803,92.24437 9.09137,134.80442 -6.23856,23.03474 -36.36549,61.67025 -36.36549,61.67025 l -77.78174,-1.51523 c 0,0 -37.51177,-36.31101 -45.45687,-60.15502 -13.88573,-41.67241 6.30594,-129.51373 14.64722,-135.81457 z"
       id="path3871"
       inkscape:connector-curvature="0"
       sodipodi:nodetypes="sssccss" />
    <path
       style="fill:#b30000;fill-opacity:1;stroke:none"
       d="m -825.77187,614.61322 c 38.29068,0.871 71.83959,8.54534 88.67699,76.70559 15.71223,63.60543 8.82919,150.79653 -42.12157,191.98567 -23.56204,19.04781 -67.13097,19.23997 -90.89391,0.44339 -52.94607,-41.88056 -64.01083,-132.33838 -45.66865,-197.3063 18.19074,-64.43153 52.15113,-72.68947 90.00714,-71.82835 z"
       id="path3776"
       inkscape:connector-curvature="0"
       sodipodi:nodetypes="ssssss" />
    <path
       sodipodi:type="arc"
       style="fill:#e9c6af;fill-opacity:1;fill-rule:nonzero;stroke:none"
       id="path3780"
       sodipodi:cx="453.21429"
       sodipodi:cy="350.93362"
       sodipodi:rx="16.785715"
       sodipodi:ry="16.428572"
       d="m 470.00001,350.93362 a 16.785715,16.428572 0 1 1 -33.57143,0 16.785715,16.428572 0 1 1 33.57143,0 z"
       transform="matrix(0.6207389,0,0,0.6207389,-1033.7194,498.31022)" />
    <g
       id="g3772"
       transform="matrix(0.6207389,0,0,0.6207389,-1030.6157,497.86683)">
      <rect
         y="448.79074"
         x="297.14285"
         height="46.42857"
         width="68.571426"
         id="rect3770"
         style="fill:#e9c6af;fill-opacity:1;fill-rule:nonzero;stroke:none" />
      <path
         sodipodi:nodetypes="sscs"
         inkscape:connector-curvature="0"
         id="path2987"
         d="m 210,308.07647 c 2.04275,197.48091 245.81428,192.38364 242.85714,2.85714 C 452.05179,259.31768 330,195.21932 330,195.21932 c 0,0 -120.45357,69.00858 -120,112.85715 z"
         style="fill:#e9c6af;fill-opacity:1;stroke:none" />
      <rect
         style="fill:#a05a2c;fill-opacity:1;fill-rule:nonzero;stroke:none"
         id="rect3898"
         width="68.571426"
         height="46.42857"
         x="1080.3795"
         y="448.79074" />
      <path
         style="fill:#a05a2c;fill-opacity:1;stroke:none"
         d="m 993.23653,308.07647 c 2.0428,197.48091 245.81437,192.38364 242.85717,2.85714 -0.8053,-51.61593 -122.8571,-115.71429 -122.8571,-115.71429 0,0 -120.45357,69.00858 -120.00007,112.85715 z"
         id="path3900"
         inkscape:connector-curvature="0"
         sodipodi:nodetypes="sscs" />
      <rect
         y="447.97705"
         x="1451.4128"
         height="46.42857"
         width="68.571426"
         id="rect3945"
         style="fill:#e9c6af;fill-opacity:1;fill-rule:nonzero;stroke:none" />
      <path
         sodipodi:nodetypes="sscs"
         inkscape:connector-curvature="0"
         id="path3947"
         d="m 1364.2698,307.2628 c 2.0428,197.48091 245.8144,192.38364 242.8572,2.85714 -0.8053,-51.61593 -122.8571,-115.71429 -122.8571,-115.71429 0,0 -120.4536,69.00858 -120.0001,112.85715 z"
         style="fill:#e9c6af;fill-opacity:1;stroke:none" />
      <rect
         style="fill:#e9c6af;fill-opacity:1;fill-rule:nonzero;stroke:none"
         id="rect4084"
         width="68.571426"
         height="46.42857"
         x="1815.123"
         y="448.79071" />
      <path
         style="fill:#e9c6af;fill-opacity:1;stroke:none"
         d="m 1727.98,308.07647 c 2.0428,197.48091 245.8144,192.38364 242.8572,2.85714 -0.8053,-51.61593 -122.8571,-115.71429 -122.8571,-115.71429 0,0 -120.4536,69.00858 -120.0001,112.85715 z"
         id="path4086"
         inkscape:connector-curvature="0"
         sodipodi:nodetypes="sscs" />
      <rect
         y="448.79071"
         x="2182.9016"
         height="46.42857"
         width="68.571426"
         id="rect4114"
         style="fill:#e9c6af;fill-opacity:1;fill-rule:nonzero;stroke:none" />
      <path
         sodipodi:nodetypes="sscs"
         inkscape:connector-curvature="0"
         id="path4116"
         d="m 2095.7586,308.07647 c 2.0428,197.48091 245.8144,192.38364 242.8572,2.85714 -0.8053,-51.61593 -122.8571,-115.71429 -122.8571,-115.71429 0,0 -120.4536,69.00858 -120.0001,112.85715 z"
         style="fill:#e9c6af;fill-opacity:1;stroke:none" />
    </g>
    <rect
       style="opacity:0.93333333;fill:none;stroke:none"
       id="rect2989"
       width="43.451717"
       height="39.904636"
       x="-846.1676"
       y="768.91119" />
    <path
       style="fill:#b30000;fill-opacity:1;stroke:none"
       d="m -744.63242,706.39389 c -12.61896,4.20632 -40.01057,-32.5207 -48.8516,-66.69604 -2.53386,-9.79474 8.33817,-10.78811 -0.36413,-0.25508 -33.5419,40.59822 -99.88525,30.53709 -101.53515,108.62931 -0.4629,21.90967 -13.74493,-64.29082 -13.74493,-64.29082 l 44.33849,-56.30989 38.57449,-11.08462 56.30988,20.8391 23.94279,38.1311 c 0,0 10.16343,28.09252 1.33016,31.03694 z"
       id="path3778"
       inkscape:connector-curvature="0"
       sodipodi:nodetypes="sssscccccs" />
    <path
       style="fill:#000444;fill-opacity:1;stroke:none"
       d="m -846.62108,789.7229 21.73413,16.07689 21.29128,-14.60279 c 0,0 31.65457,-1.82621 40.36403,8.84456 6.68068,8.18511 0.44357,31.69305 0.44357,31.69305 0,0 -6.03644,24.18193 -5.76594,36.49478 0.40744,18.54641 10.31623,35.21648 11.09078,54.53635 1.06781,26.63474 -5.54428,54.47456 -15.08213,79.36586 -5.48694,14.3196 -19.07311,39.8055 -19.07311,39.8055 l 4.4379,9.8537 -35.92914,0 5.32132,-78.24944 -12.8666,0 2.66031,78.24944 -37.69934,0 4.8797,-10.8845 c 0,0 -13.66571,-25.1366 -18.18652,-38.7747 -8.46747,-25.54408 -14.77725,-52.47453 -13.74951,-79.36586 0.72501,-18.97027 12.54107,-35.83986 13.3084,-54.53635 0.50319,-12.26038 -5.76716,-36.35756 -5.76716,-36.35756 0,0 -6.87033,-24.4984 3.5e-4,-33.15464 8.21094,-10.34478 38.58768,-8.99429 38.58768,-8.99429 z"
       id="path3784"
       inkscape:connector-curvature="0"
       sodipodi:nodetypes="cccscsssccccccccssscsc" />
    <path
       style="fill:#4e78ad;fill-opacity:1;stroke:none"
       d="m -893.60976,921.43558 c 0,0 -1.59201,37.19159 3.1037,55.42312 0.5883,2.28415 38.45045,10.17552 66.06435,11.08462 27.6139,0.9091 61.63445,-5.69713 63.40404,-10.19785 6.18809,-15.73859 4.43385,-52.76281 4.43385,-52.76281 z"
       id="path3798"
       inkscape:connector-curvature="0"
       sodipodi:nodetypes="cszscc" />
    <path
       sodipodi:nodetypes="cccsccsscscsc"
       inkscape:connector-curvature="0"
       id="path3796"
       d="m -846.62108,789.7229 21.73413,16.07689 21.29128,-14.60279 c 0,0 31.65457,-1.82621 40.36403,8.84456 6.68068,8.18511 0.44357,31.69305 0.44357,31.69305 0,0 -6.03644,24.18193 -5.76594,36.49478 4.95153,35.21744 10.43093,35.98467 11.12757,56.17565 0.34947,10.12881 -36.12723,25.5985 -67.32391,23.70693 -30.05861,-1.82256 -66.95777,-17.8454 -68,-25.34623 0.72501,-18.97027 12.54107,-35.83986 13.3084,-54.53635 0.50319,-12.26038 -5.76716,-36.35756 -5.76716,-36.35756 0,0 -6.87033,-24.4984 3.5e-4,-33.15464 8.21094,-10.34478 38.58768,-8.99429 38.58768,-8.99429 z"
       style="fill:#232323;fill-opacity:1;stroke:none" />
    <path
       sodipodi:type="arc"
       style="fill:#000000;fill-opacity:1;fill-rule:nonzero;stroke:none"
       id="path3800"
       sodipodi:cx="268.21429"
       sodipodi:cy="367.36218"
       sodipodi:rx="12.5"
       sodipodi:ry="12.857142"
       d="m 280.71429,367.36218 a 12.5,12.857142 0 1 1 -25,0 12.5,12.857142 0 1 1 25,0 z"
       transform="matrix(0.6207389,0,0,0.6207389,-1030.6157,497.86683)" />
    <path
       d="m 280.71429,367.36218 a 12.5,12.857142 0 1 1 -25,0 12.5,12.857142 0 1 1 25,0 z"
       sodipodi:ry="12.857142"
       sodipodi:rx="12.5"
       sodipodi:cy="367.36218"
       sodipodi:cx="268.21429"
       id="path3802"
       style="fill:#000000;fill-opacity:1;fill-rule:nonzero;stroke:none"
       sodipodi:type="arc"
       transform="matrix(0.6207389,0,0,0.6207389,-953.91011,497.42345)" />
    <g
       id="g3846"
       transform="translate(-933.70063,419.42857)">
      <g
         id="g3840">
        <g
           id="g3835">
          <g
             style="fill:#deaa87;fill-opacity:1"
             id="g3808"
             transform="matrix(0.6207389,0,0,0.6207389,143.08493,78.438258)">
            <rect
               y="448.79074"
               x="297.14285"
               height="46.42857"
               width="68.571426"
               id="rect3810"
               style="fill:#deaa87;fill-opacity:1;fill-rule:nonzero;stroke:none" />
            <path
               sodipodi:nodetypes="sscs"
               inkscape:connector-curvature="0"
               id="path3812"
               d="m 210,308.07647 c 2.04275,197.48091 245.81428,192.38364 242.85714,2.85714 C 452.05179,259.31768 330,195.21932 330,195.21932 c 0,0 -120.45357,69.00858 -120,112.85715 z"
               style="fill:#deaa87;fill-opacity:1;stroke:none" />
          </g>
        </g>
      </g>
    </g>
    <path
       sodipodi:nodetypes="cccscsssccccccccssscsc"
       inkscape:connector-curvature="0"
       id="path3814"
       d="m -606.62108,789.7229 21.73413,16.07689 21.29128,-14.60279 c 0,0 31.65457,-1.82621 40.36403,8.84456 6.68068,8.18511 0.44357,31.69305 0.44357,31.69305 0,0 -0.4806,24.18193 -0.2101,36.49478 0.40744,18.54641 4.76039,35.21648 5.53494,54.53635 1.06781,26.63474 -5.54428,54.47456 -15.08213,79.36586 -5.48694,14.3196 -19.07311,39.8055 -19.07311,39.8055 l 4.4379,9.8537 -35.92914,0 5.32132,-78.24944 -12.8666,0 2.66031,78.24944 -37.69934,0 4.8797,-10.8845 c 0,0 -13.66571,-25.1366 -18.18652,-38.7747 -8.46747,-25.54408 -14.77725,-52.47453 -13.74951,-79.36586 0.72501,-18.97027 6.48015,-36.85001 7.24748,-55.5465 0.50319,-12.26038 0.29376,-35.34741 0.29376,-35.34741 0,0 -6.87033,-24.4984 3.5e-4,-33.15464 8.21094,-10.34478 38.58768,-8.99429 38.58768,-8.99429 z"
       style="fill:#630400;fill-opacity:1;stroke:none" />
    <path
       transform="matrix(0.6207389,0,0,0.6207389,-788.82999,498.22397)"
       d="m 280.71429,367.36218 a 12.5,12.857142 0 1 1 -25,0 12.5,12.857142 0 1 1 25,0 z"
       sodipodi:ry="12.857142"
       sodipodi:rx="12.5"
       sodipodi:cy="367.36218"
       sodipodi:cx="268.21429"
       id="path3831"
       style="fill:#000000;fill-opacity:1;fill-rule:nonzero;stroke:none"
       sodipodi:type="arc" />
    <path
       transform="matrix(0.6207389,0,0,0.6207389,-712.1244,497.78059)"
       sodipodi:type="arc"
       style="fill:#000000;fill-opacity:1;fill-rule:nonzero;stroke:none"
       id="path3833"
       sodipodi:cx="268.21429"
       sodipodi:cy="367.36218"
       sodipodi:rx="12.5"
       sodipodi:ry="12.857142"
       d="m 280.71429,367.36218 a 12.5,12.857142 0 1 1 -25,0 12.5,12.857142 0 1 1 25,0 z" />
    <path
       style="fill:#be8ca0;fill-opacity:1;stroke:none"
       d="m -660.45437,702.55959 c 0,0 18.86523,-20.37167 75.76144,-20.70813 56.41955,-0.33364 74.75129,20.70813 74.75129,20.70813 l 2.02031,-27.27412 -56.56854,-55.05331 -44.44672,-2.52538 -54.54823,59.599 z"
       id="path3867"
       inkscape:connector-curvature="0"
       sodipodi:nodetypes="cscccccc" />
    <path
       style="fill:none;stroke:none"
       d="m -663.9899,625.28292 155.05842,1.01015 4.04061,146.92625 -40.91118,70.76163 -72.73099,1.01015 -47.47717,-71.77178 z"
       id="path3869"
       inkscape:connector-curvature="0" />
    <path
       style="fill:#b4b4b4;fill-opacity:1;stroke:none"
       d="m -606.62108,789.7229 21.73413,16.07689 21.29128,-14.60279 c 0,0 31.65457,-1.82621 40.36403,8.84456 6.68068,8.18511 0.44357,31.69305 0.44357,31.69305 0,0 -0.4806,24.18193 -0.2101,36.49478 0.40744,18.54641 4.76039,35.21648 5.53494,54.53635 1.06781,26.63474 -7.56459,83.26386 -10.53644,90.47756 -47.05225,19.1857 -66.41165,19.6592 -115.04178,0.5051 -4.93194,-4.836 -10.73664,-64.09133 -9.7089,-90.98266 0.72501,-18.97027 6.48015,-36.85001 7.24748,-55.5465 0.50319,-12.26038 0.29376,-35.34741 0.29376,-35.34741 0,0 -6.87033,-24.4984 3.5e-4,-33.15464 8.21094,-10.34478 38.58768,-8.99429 38.58768,-8.99429 z"
       id="path3875"
       inkscape:connector-curvature="0"
       sodipodi:nodetypes="cccscssccsscsc" />
    <path
       style="fill:#be8ca0;fill-opacity:1;stroke:none"
       d="m -647.82747,744.93505 c 0,0 19.89912,33.60435 63.63962,34.59773 45.87643,1.04189 63.63961,-34.09266 63.63961,-34.09266 0,0 -2.94595,42.96119 -14.64721,58.6398 -28.87702,38.69251 -69.21641,37.18076 -100.0051,1.01015 -12.82688,-15.06903 -12.62692,-60.15502 -12.62692,-60.15502 z"
       id="path3873"
       inkscape:connector-curvature="0"
       sodipodi:nodetypes="cscssc" />
    <path
       sodipodi:type="arc"
       style="fill:#a05a2c;fill-opacity:1;fill-rule:nonzero;stroke:none"
       id="path3908"
       sodipodi:cx="453.21429"
       sodipodi:cy="350.93362"
       sodipodi:rx="16.785715"
       sodipodi:ry="16.428572"
       d="m 470.00001,350.93362 a 16.785715,16.428572 0 1 1 -33.57143,0 16.785715,16.428572 0 1 1 33.57143,0 z"
       transform="matrix(0.71100785,0,0,0.71100785,-587.43503,468.14704)" />
    <path
       sodipodi:nodetypes="cccscsssccccccccssscsc"
       inkscape:connector-curvature="0"
       id="path3902"
       d="m -360.43569,789.7229 21.73414,16.07689 21.29128,-14.60279 c 0,0 37.71549,-1.82621 46.42495,8.84456 6.68068,8.18511 0.44357,31.69305 0.44357,31.69305 0,0 -3.74658,16.65192 -7.28117,36.49478 -4.52037,25.37693 -4.55632,34.75616 -6.08182,54.03127 -2.46772,31.18043 -1.75729,53.47688 -2.45522,79.87094 -0.36879,13.9468 1.12994,39.8055 1.12994,39.8055 l 4.4379,9.8537 -35.92914,0 -14.88173,-84.24944 -12.8666,0 -12.49198,84.24944 -37.69935,0 4.8797,-10.8845 c 0,0 0.74378,-25.9244 1.00638,-40.2899 0.6239,-34.13041 0.0964,-44.88041 -0.11245,-75.32528 -0.13709,-19.98116 -3.62137,-31.79925 -9.42003,-57.56681 -2.69399,-11.97132 -10.31285,-34.84233 -10.31285,-34.84233 0,0 -6.87033,-24.4984 3.5e-4,-33.15464 8.21094,-10.34478 48.18413,-10.00444 48.18413,-10.00444 z"
       style="fill:#000444;fill-opacity:1;stroke:none" />
    <path
       transform="matrix(0.6207389,0,0,0.6207389,-544.43031,497.86683)"
       d="m 280.71429,367.36218 a 12.5,12.857142 0 1 1 -25,0 12.5,12.857142 0 1 1 25,0 z"
       sodipodi:ry="12.857142"
       sodipodi:rx="12.5"
       sodipodi:cy="367.36218"
       sodipodi:cx="268.21429"
       id="path3904"
       style="fill:#000000;fill-opacity:1;fill-rule:nonzero;stroke:none"
       sodipodi:type="arc" />
    <path
       transform="matrix(0.6207389,0,0,0.6207389,-467.72472,497.42345)"
       sodipodi:type="arc"
       style="fill:#000000;fill-opacity:1;fill-rule:nonzero;stroke:none"
       id="path3906"
       sodipodi:cx="268.21429"
       sodipodi:cy="367.36218"
       sodipodi:rx="12.5"
       sodipodi:ry="12.857142"
       d="m 280.71429,367.36218 a 12.5,12.857142 0 1 1 -25,0 12.5,12.857142 0 1 1 25,0 z" />
    <path
       transform="matrix(0.71100785,0,0,0.71100785,-734.9173,468.14704)"
       d="m 470.00001,350.93362 a 16.785715,16.428572 0 1 1 -33.57143,0 16.785715,16.428572 0 1 1 33.57143,0 z"
       sodipodi:ry="16.428572"
       sodipodi:rx="16.785715"
       sodipodi:cy="350.93362"
       sodipodi:cx="453.21429"
       id="path3910"
       style="fill:#a05a2c;fill-opacity:1;fill-rule:nonzero;stroke:none"
       sodipodi:type="arc" />
    <path
       style="fill:#e9c6af;fill-opacity:1;stroke:none"
       d="m -130.12091,789.21783 21.73414,16.07689 21.29128,-14.60279 c 0,0 37.71549,-1.82621 46.42495,8.84456 6.68068,8.18511 0.44357,31.69305 0.44357,31.69305 0,0 -3.74658,16.65192 -7.28117,36.49478 -4.52037,25.37693 -4.55632,34.75616 -6.08182,54.03127 -2.46772,31.18043 -1.75729,53.47688 -2.45522,79.87101 -0.36879,13.9467 1.12994,39.8054 1.12994,39.8054 l 4.4379,9.8537 -35.92914,0 -14.88173,-84.24941 -12.8666,0 -12.49198,84.24941 -37.69935,0 4.8797,-10.8844 c 0,0 0.74378,-25.9245 1.00638,-40.29 0.6239,-34.13038 0.0964,-44.88038 -0.11245,-75.32525 -0.13709,-19.98116 -3.62137,-31.79925 -9.42003,-57.56681 -2.69399,-11.97132 -10.31285,-34.84233 -10.31285,-34.84233 0,0 -6.87033,-24.4984 3.5e-4,-33.15464 8.21094,-10.34478 48.18413,-10.00444 48.18413,-10.00444 z"
       id="path3949"
       inkscape:connector-curvature="0"
       sodipodi:nodetypes="cccscsssccccccccssscsc" />
    <path
       sodipodi:type="arc"
       style="fill:#000000;fill-opacity:1;fill-rule:nonzero;stroke:none"
       id="path3951"
       sodipodi:cx="268.21429"
       sodipodi:cy="367.36218"
       sodipodi:rx="12.5"
       sodipodi:ry="12.857142"
       d="m 280.71429,367.36218 a 12.5,12.857142 0 1 1 -25,0 12.5,12.857142 0 1 1 25,0 z"
       transform="matrix(0.6207389,0,0,0.6207389,-314.11553,497.36175)" />
    <path
       d="m 280.71429,367.36218 a 12.5,12.857142 0 1 1 -25,0 12.5,12.857142 0 1 1 25,0 z"
       sodipodi:ry="12.857142"
       sodipodi:rx="12.5"
       sodipodi:cy="367.36218"
       sodipodi:cx="268.21429"
       id="path3953"
       style="fill:#000000;fill-opacity:1;fill-rule:nonzero;stroke:none"
       sodipodi:type="arc"
       transform="matrix(0.6207389,0,0,0.6207389,-237.40994,496.91837)" />
    <path
       transform="matrix(0.71100785,0,0,0.71100785,-357.12025,467.64196)"
       d="m 470.00001,350.93362 a 16.785715,16.428572 0 1 1 -33.57143,0 16.785715,16.428572 0 1 1 33.57143,0 z"
       sodipodi:ry="16.428572"
       sodipodi:rx="16.785715"
       sodipodi:cy="350.93362"
       sodipodi:cx="453.21429"
       id="path3955"
       style="fill:#e9c6af;fill-opacity:1;fill-rule:nonzero;stroke:none"
       sodipodi:type="arc" />
    <path
       sodipodi:type="arc"
       style="fill:#e9c6af;fill-opacity:1;fill-rule:nonzero;stroke:none"
       id="path3957"
       sodipodi:cx="453.21429"
       sodipodi:cy="350.93362"
       sodipodi:rx="16.785715"
       sodipodi:ry="16.428572"
       d="m 470.00001,350.93362 a 16.785715,16.428572 0 1 1 -33.57143,0 16.785715,16.428572 0 1 1 33.57143,0 z"
       transform="matrix(0.71100785,0,0,0.71100785,-504.60252,467.64196)" />
    <g
       id="g4047"
       transform="translate(-933.70063,419.42857)">
      <path
         sodipodi:nodetypes="cscccccc"
         transform="translate(0,308.2677)"
         inkscape:connector-curvature="0"
         id="path3959"
         d="m 518.20826,-32.712825 c 0,0 17.2101,-47.536354 59.599,-42.426407 77.1262,9.297498 90.91373,53.538084 90.91373,53.538084 l 6.56599,-21.213203 -50.50763,-67.680219 -62.12438,1.51523 -45.45687,60.60915 z"
         style="fill:#502d16;fill-opacity:1;stroke:none" />
      <path
         transform="translate(0,308.2677)"
         d="m 555.07882,-67.815628 c 0,5.1605 -3.95728,9.343911 -8.83883,9.343911 -4.88155,0 -8.83883,-4.183411 -8.83883,-9.343911 0,-5.1605 3.95728,-9.343911 8.83883,-9.343911 4.88155,0 8.83883,4.183411 8.83883,9.343911 z"
         sodipodi:ry="9.3439112"
         sodipodi:rx="8.8388348"
         sodipodi:cy="-67.815628"
         sodipodi:cx="546.23999"
         id="path3974"
         style="fill:#502d16;fill-opacity:1;fill-rule:nonzero;stroke:none"
         sodipodi:type="arc" />
      <path
         transform="translate(-2.0203051,310.79308)"
         d="m 567.20065,-75.139229 c 0,3.347351 -3.16583,6.060916 -7.07107,6.060916 -3.90525,0 -7.07107,-2.713565 -7.07107,-6.060916 0,-3.347351 3.16582,-6.060915 7.07107,-6.060915 3.90524,0 7.07107,2.713564 7.07107,6.060915 z"
         sodipodi:ry="6.0609155"
         sodipodi:rx="7.0710678"
         sodipodi:cy="-75.139229"
         sodipodi:cx="560.12958"
         id="path3976"
         style="fill:#502d16;fill-opacity:1;fill-rule:nonzero;stroke:none"
         sodipodi:type="arc" />
      <path
         transform="translate(-1.5152288,302.71186)"
         d="m 642.96209,-57.96664 c 0,6.694702 -5.76633,12.12183 -12.87945,12.12183 -7.11312,0 -12.87944,-5.427128 -12.87944,-12.12183 0,-6.694703 5.76632,-12.121831 12.87944,-12.121831 7.11312,0 12.87945,5.427128 12.87945,12.121831 z"
         sodipodi:ry="12.121831"
         sodipodi:rx="12.879445"
         sodipodi:cy="-57.96664"
         sodipodi:cx="630.08264"
         id="path3978"
         style="fill:#502d16;fill-opacity:1;fill-rule:nonzero;stroke:none"
         sodipodi:type="arc" />
      <path
         transform="translate(1.5152288,308.77278)"
         d="m 642.96208,-52.663338 c 0,3.207878 -2.2613,5.808378 -5.05076,5.808378 -2.78946,0 -5.05077,-2.6005 -5.05077,-5.808378 0,-3.207878 2.26131,-5.808377 5.05077,-5.808377 2.78946,0 5.05076,2.600499 5.05076,5.808377 z"
         sodipodi:ry="5.8083773"
         sodipodi:rx="5.0507627"
         sodipodi:cy="-52.663338"
         sodipodi:cx="637.91132"
         id="path3982"
         style="fill:#502d16;fill-opacity:1;fill-rule:nonzero;stroke:none"
         sodipodi:type="arc" />
      <path
         transform="matrix(1.1935484,0,0,1.1076923,-126.26907,310.59397)"
         d="m 673.26668,-38.016125 c 0,9.065742 -7.01004,16.414978 -15.65737,16.414978 -8.64732,0 -15.65736,-7.349236 -15.65736,-16.414978 0,-9.065742 7.01004,-16.414978 15.65736,-16.414978 8.64733,0 15.65737,7.349236 15.65737,16.414978 z"
         sodipodi:ry="16.414978"
         sodipodi:rx="15.657365"
         sodipodi:cy="-38.016125"
         sodipodi:cx="657.60931"
         id="path3986"
         style="fill:#502d16;fill-opacity:1;fill-rule:nonzero;stroke:none"
         sodipodi:type="arc" />
    </g>
    <path
       style="fill:#ffd42a;fill-opacity:1;stroke:none"
       d="m -360.43569,789.7229 21.73414,16.07689 21.29128,-14.60279 c 0,0 37.71549,-1.82621 46.42495,8.84456 6.68068,8.18511 0.44357,31.69305 0.44357,31.69305 0,0 -3.74658,16.65192 -7.28117,36.49478 -4.52037,25.37693 -3.04109,34.75616 -4.56659,54.03127 2.31023,14.14379 -28.197,10.02953 -55.00442,9.36095 -26.80741,-0.66859 -59.0064,2.61358 -54.01874,-6.33049 -0.13709,-19.98116 -1.09599,-31.79925 -6.89465,-57.56681 -2.69399,-11.97132 -10.31285,-34.84233 -10.31285,-34.84233 0,0 -6.87033,-24.4984 3.5e-4,-33.15464 8.21094,-10.34478 48.18413,-10.00444 48.18413,-10.00444 z"
       id="path4074"
       inkscape:connector-curvature="0"
       sodipodi:nodetypes="cccscscscscsc" />
    <path
       style="fill:#ffe680;fill-opacity:1;stroke:none"
       d="m -338.72078,803.57484 7.57614,9.59645 19.1929,-19.19289 -4.54568,-9.59645 z"
       id="path4076"
       inkscape:connector-curvature="0"
       sodipodi:nodetypes="ccccc" />
    <path
       style="fill:#ffe680;fill-opacity:1;stroke:none"
       d="m -338.2157,803.06977 -5.55584,10.6066 -22.22336,-24.74874 5.55584,-5.55584 z"
       id="path4078"
       inkscape:connector-curvature="0" />
    <path
       sodipodi:type="arc"
       style="fill:#ffe680;fill-opacity:1;fill-rule:nonzero;stroke:none"
       id="path4080"
       sodipodi:cx="597.25269"
       sodipodi:cy="86.99025"
       sodipodi:rx="3.2829957"
       sodipodi:ry="4.0406103"
       d="m 600.53568,86.99025 a 3.2829957,4.0406103 0 1 1 -6.56599,0 3.2829957,4.0406103 0 1 1 6.56599,0 z"
       transform="matrix(0.92307692,0,0,0.75000001,-888.01065,750.45398)" />
    <path
       sodipodi:type="arc"
       style="fill:#ffe680;fill-opacity:1;fill-rule:nonzero;stroke:none"
       id="path4082"
       sodipodi:cx="598.76794"
       sodipodi:cy="97.344315"
       sodipodi:rx="3.7880721"
       sodipodi:ry="3.2829957"
       d="m 602.55602,97.344315 a 3.7880721,3.2829957 0 1 1 -7.57615,0 3.7880721,3.2829957 0 1 1 7.57615,0 z"
       transform="translate(-935.21586,727.69627)" />
    <path
       transform="matrix(0.6207389,0,0,0.6207389,-88.34644,497.86683)"
       d="m 280.71429,367.36218 a 12.5,12.857142 0 1 1 -25,0 12.5,12.857142 0 1 1 25,0 z"
       sodipodi:ry="12.857142"
       sodipodi:rx="12.5"
       sodipodi:cy="367.36218"
       sodipodi:cx="268.21429"
       id="path4090"
       style="fill:#000000;fill-opacity:1;fill-rule:nonzero;stroke:none"
       sodipodi:type="arc" />
    <path
       transform="matrix(0.6207389,0,0,0.6207389,-11.64085,497.42345)"
       sodipodi:type="arc"
       style="fill:#000000;fill-opacity:1;fill-rule:nonzero;stroke:none"
       id="path4092"
       sodipodi:cx="268.21429"
       sodipodi:cy="367.36218"
       sodipodi:rx="12.5"
       sodipodi:ry="12.857142"
       d="m 280.71429,367.36218 a 12.5,12.857142 0 1 1 -25,0 12.5,12.857142 0 1 1 25,0 z" />
    <path
       sodipodi:type="arc"
       style="fill:#e9c6af;fill-opacity:1;fill-rule:nonzero;stroke:none"
       id="path4094"
       sodipodi:cx="453.21429"
       sodipodi:cy="350.93362"
       sodipodi:rx="16.785715"
       sodipodi:ry="16.428572"
       d="m 470.00001,350.93362 a 16.785715,16.428572 0 1 1 -33.57143,0 16.785715,16.428572 0 1 1 33.57143,0 z"
       transform="matrix(0.71100785,0,0,0.71100785,-131.35116,468.14704)" />
    <path
       transform="matrix(0.71100785,0,0,0.71100785,-278.83343,468.14704)"
       d="m 470.00001,350.93362 a 16.785715,16.428572 0 1 1 -33.57143,0 16.785715,16.428572 0 1 1 33.57143,0 z"
       sodipodi:ry="16.428572"
       sodipodi:rx="16.785715"
       sodipodi:cy="350.93362"
       sodipodi:cx="453.21429"
       id="path4096"
       style="fill:#e9c6af;fill-opacity:1;fill-rule:nonzero;stroke:none"
       sodipodi:type="arc" />
    <path
       style="fill:#ffe162;fill-opacity:1;stroke:none"
       d="m -89.2131,645.99105 c 0,0 12.83608,4.77202 29.7995,41.92133 13.10928,28.70886 13.63706,51.0127 13.63706,51.0127 0,0 11.38264,-15.37552 13.38452,-27.77919 2.47735,-15.34971 -0.75762,-27.7792 -0.75762,-27.7792 l -8.5863,-28.28427 -68.69037,-39.39595 -69.70052,52.02286 c 0,0 -5.444,17.82975 -4.54569,26.5165 1.62071,15.67237 8.5863,28.53681 8.5863,28.53681 0,0 0.99962,-15.99755 7.82868,-36.11295 4.9292,-14.51923 14.89975,-33.0825 14.89975,-33.0825 0,0 -5.75265,9.56293 -7.3236,19.95051 -1.71977,11.37158 -0.25254,20.96067 -0.25254,20.96067 0,0 4.54785,-14.99124 31.8198,-32.82996 27.37323,-17.90495 41.59713,-16.56195 39.90103,-15.65736 z"
       id="path4098"
       inkscape:connector-curvature="0"
       sodipodi:nodetypes="cscsccccscscscsc" />
    <path
       sodipodi:nodetypes="ccccccccc"
       inkscape:connector-curvature="0"
       id="path4106"
       d="m -53.58996,921.75559 2.09047,82.39631 -46.01867,4.2023 -6.80051,-35.76207 -7.31076,0.50508 -4.91583,34.24679 -45.45033,-4.7073 3.42308,-77.85065 z"
       style="fill:#684e00;fill-opacity:1;stroke:none" />
    <path
       style="fill:#ffe162;fill-opacity:1;stroke:none"
       d="m -151.33748,767.20935 c 0,0 -23.73859,15.65737 -38.3858,34.09265 -8.67459,10.91802 -13.63706,33.0825 -13.63706,33.0825 0,0 5.7791,-11.10689 8.08122,-14.14214 1.8677,-2.46249 3.03046,-3.53553 3.03046,-3.53553 0,0 -0.97909,7.06335 -2.0203,12.12183 -0.91896,4.46455 3.53553,17.67767 3.53553,17.67767 0,0 4.93038,-22.76988 16.66752,-39.39595 9.98953,-14.15053 31.31472,-35.86042 31.31472,-35.86042 z"
       id="path4112"
       inkscape:connector-curvature="0"
       sodipodi:nodetypes="cscscscscc" />
    <path
       sodipodi:nodetypes="cscscscscscsc"
       inkscape:connector-curvature="0"
       id="path4104"
       d="m -130.12091,789.21783 c 0,0 5.04837,14.87698 21.73414,16.07689 15.60354,1.12209 21.29128,-14.60279 21.29128,-14.60279 0,0 37.71549,-1.82621 46.42495,8.84456 6.68068,8.18511 0.44357,31.69305 0.44357,31.69305 0,0 -6.78833,30.64131 -7.28117,36.49478 -2.18071,25.90033 -1.02079,35.76631 -2.54629,55.04142 -0.21514,18.68948 2.27254,12.39601 -56.01457,12.39141 -53.5089,-0.004 -59.0064,4.12881 -58.56443,-10.87618 -0.13709,-19.98116 -1.88244,-31.32565 -3.35911,-57.06173 -0.356,-6.20462 -10.31285,-34.84233 -10.31285,-34.84233 0,0 -6.87033,-24.4984 3.5e-4,-33.15464 8.21094,-10.34478 48.18413,-10.00444 48.18413,-10.00444 z"
       style="fill:#373737;fill-opacity:1;stroke:none" />
    <path
       style="fill:#241c1c;fill-opacity:1;stroke:none"
       d="m -125.07352,1051.7908 -43.94163,0 c 0,0 -1.01015,-8.4925 0.75761,-10.7184 1.76777,-2.2259 9.84899,-2.6371 9.84899,-2.6371 l -3.53553,-14.6472 42.4264,4.0406 z"
       id="path4108"
       inkscape:connector-curvature="0"
       sodipodi:nodetypes="ccscccc" />
    <path
       style="fill:#241c1c;fill-opacity:1;stroke:none"
       d="m -95.27402,1029.3439 7.57615,22.4469 41.41625,0 c 0,0 0.84179,-8.4925 -0.75761,-10.2133 -1.59941,-1.7208 -8.83884,-0.1117 -8.83884,-0.1117 l 3.03046,-16.1625 z"
       id="path4110"
       inkscape:connector-curvature="0"
       sodipodi:nodetypes="cccsccc" />
    <path
       style="fill:#000444;fill-opacity:1;stroke:none"
       d="m 323.9427,789.72291 21.7342,16.07689 21.2912,-14.60279 c 0,0 37.7155,-1.82621 46.425,8.84456 6.6807,8.18511 0.4436,31.69305 0.4436,31.69305 0,0 -3.7466,16.65192 -7.2812,36.49478 -4.5204,25.37693 -4.5563,34.75616 -6.0818,54.03127 -2.4678,31.18043 -1.7573,53.47688 -2.4553,79.87093 -0.3687,13.9468 1.13,39.8055 1.13,39.8055 l 4.4379,9.8537 -35.9292,0 -14.8817,-84.24943 -12.8666,0 -12.492,84.24943 -37.6993,0 4.8797,-10.8844 c 0,0 0.7438,-25.9245 1.0064,-40.29 0.6239,-34.1304 0.096,-44.8804 -0.1125,-75.32527 -0.1371,-19.98116 -3.6214,-31.79925 -9.42,-57.56681 -2.694,-11.97132 -10.3129,-34.84233 -10.3129,-34.84233 0,0 -6.8703,-24.4984 4e-4,-33.15464 8.2109,-10.34478 48.1841,-10.00444 48.1841,-10.00444 z"
       id="path4118"
       inkscape:connector-curvature="0"
       sodipodi:nodetypes="cccscsssccccccccssscsc" />
    <path
       sodipodi:type="arc"
       style="fill:#000000;fill-opacity:1;fill-rule:nonzero;stroke:none"
       id="path4120"
       sodipodi:cx="268.21429"
       sodipodi:cy="367.36218"
       sodipodi:rx="12.5"
       sodipodi:ry="12.857142"
       d="m 280.71429,367.36218 a 12.5,12.857142 0 1 1 -25,0 12.5,12.857142 0 1 1 25,0 z"
       transform="matrix(0.6207389,0,0,0.6207389,139.9481,497.86683)" />
    <path
       d="m 280.71429,367.36218 a 12.5,12.857142 0 1 1 -25,0 12.5,12.857142 0 1 1 25,0 z"
       sodipodi:ry="12.857142"
       sodipodi:rx="12.5"
       sodipodi:cy="367.36218"
       sodipodi:cx="268.21429"
       id="path4122"
       style="fill:#000000;fill-opacity:1;fill-rule:nonzero;stroke:none"
       sodipodi:type="arc"
       transform="matrix(0.6207389,0,0,0.6207389,216.6537,497.42345)" />
    <path
       transform="matrix(0.71100785,0,0,0.71100785,96.9433,468.14704)"
       d="m 470.00001,350.93362 a 16.785715,16.428572 0 1 1 -33.57143,0 16.785715,16.428572 0 1 1 33.57143,0 z"
       sodipodi:ry="16.428572"
       sodipodi:rx="16.785715"
       sodipodi:cy="350.93362"
       sodipodi:cx="453.21429"
       id="path4124"
       style="fill:#e9c6af;fill-opacity:1;fill-rule:nonzero;stroke:none"
       sodipodi:type="arc" />
    <path
       sodipodi:type="arc"
       style="fill:#e9c6af;fill-opacity:1;fill-rule:nonzero;stroke:none"
       id="path4126"
       sodipodi:cx="453.21429"
       sodipodi:cy="350.93362"
       sodipodi:rx="16.785715"
       sodipodi:ry="16.428572"
       d="m 470.00001,350.93362 a 16.785715,16.428572 0 1 1 -33.57143,0 16.785715,16.428572 0 1 1 33.57143,0 z"
       transform="matrix(0.71100785,0,0,0.71100785,-50.53895,468.14704)" />
    <path
       sodipodi:nodetypes="csccccccccscc"
       inkscape:connector-curvature="0"
       id="path4088"
       d="m 172.1792,922.26067 c 0,0 -1.7573,53.47688 -2.4553,79.87103 -0.3687,13.9467 1.13,39.8054 1.13,39.8054 l 4.4379,9.8537 -35.9292,0 -14.8817,-84.24943 -12.8666,0 -12.492,84.24943 -37.6993,0 4.8797,-10.8844 c 0,0 0.7438,-25.9245 1.0064,-40.29 0.6239,-34.1304 -0.1125,-75.32527 -0.1125,-75.32527 z"
       style="fill:#483737;fill-opacity:1;stroke:none" />
    <path
       style="fill:#784421;fill-opacity:1;stroke:none"
       d="m 137.5662,1051.7908 37.3756,0 -3.0304,0 z"
       id="path4132"
       inkscape:connector-curvature="0" />
    <path
       style="fill:#87decd;fill-opacity:1;stroke:none"
       d="m 95.6482,789.72291 c 0,0 6.126,11.93701 21.7342,12.54136 16.6629,0.64518 21.2912,-11.06726 21.2912,-11.06726 0,0 37.7155,-1.82621 46.425,8.84456 6.6807,8.18511 0.4436,31.69305 0.4436,31.69305 0,0 -3.7466,16.65192 -7.2812,36.49478 -4.5204,25.37693 -7.092,71.20386 -7.092,71.20386 0,0 -16.2417,10.21094 -55.0166,9.09138 -30.2341,-0.87297 -48.9558,-9.09137 -48.9558,-9.09137 0,0 -3.6214,-45.94139 -9.42,-71.70895 -2.694,-11.97132 -10.3129,-34.84233 -10.3129,-34.84233 0,0 -6.8703,-24.4984 4e-4,-33.15464 8.2109,-10.34478 48.1841,-10.00444 48.1841,-10.00444 z"
       id="path4128"
       inkscape:connector-curvature="0"
       sodipodi:nodetypes="cscscscscscsc" />
    <path
       sodipodi:nodetypes="cscscscscscsc"
       inkscape:connector-curvature="0"
       id="path4130"
       d="m 92.6177,790.22799 c 0,0 8.1463,15.47254 23.7545,16.07689 16.6629,0.64518 26.342,-14.60279 26.342,-14.60279 0,0 33.6749,-2.33129 42.3844,8.33948 6.6807,8.18511 0.4436,31.69305 0.4436,31.69305 0,0 -3.7466,16.65192 -7.2812,36.49478 -4.5204,25.37693 -7.5971,62.61756 -7.5971,62.61756 0,0 -16.2417,10.21094 -55.0166,9.09138 -30.2341,-0.87297 -48.9558,-9.09137 -48.9558,-9.09137 0,0 -3.1163,-37.35509 -8.9149,-63.12265 -2.694,-11.97132 -10.3129,-34.84233 -10.3129,-34.84233 0,0 -6.8703,-24.4984 4e-4,-33.15464 8.2109,-10.34478 45.1536,-9.49936 45.1536,-9.49936 z"
       style="fill:#a02c2c;fill-opacity:1;stroke:none" />
    <path
       style="fill:#a05a2c;fill-opacity:1;stroke:none"
       d="m 174.4367,684.37684 -0.505,21.21321 c 0,0 4.1955,-8.86566 5.0507,-13.63706 0.9802,-5.46869 0,-16.66752 0,-16.66752 0,0 6.0292,12.10953 7.0711,18.68782 1.1074,6.99194 -4.5457,30.80966 -4.5457,30.80966 l 11.1117,-20.70813 c 0,0 1.8977,-19.75804 3.0304,-28.28427 1.0871,-8.18284 5.3019,-15.99275 5.0508,-24.24366 -0.1168,-3.83739 -3.0304,-11.11168 -3.0304,-11.11168 0,0 -0.3396,6.25298 -1.5153,9.09137 -0.5542,1.33804 -2.5254,3.53554 -2.5254,3.53554 0,0 -8.8148,-22.16835 -16.6675,-30.80966 -9.1385,-10.05613 -33.8401,-22.72843 -33.8401,-22.72843 0,0 5.0846,5.80607 7.0711,9.09137 1.0526,1.7408 2.5254,5.55584 2.5254,5.55584 0,0 -9.1612,-10.43074 -15.1523,-13.63706 -7.2004,-3.85352 -23.7386,-6.06091 -23.7386,-6.06091 0,0 5.7178,3.66252 8.0812,6.06091 1.6073,1.63108 4.0406,5.55584 4.0406,5.55584 0,0 -14.9119,-5.7089 -22.7284,-7.07107 -7.6367,-1.33084 -23.2335,-1.01015 -23.2335,-1.01015 0,0 4.3934,1.98624 6.566,3.03046 1.6965,0.81539 5.0507,2.52538 5.0507,2.52538 0,0 -6.7871,0.59405 -10.1015,0 -4.7714,-0.85521 -13.6371,-5.05076 -13.6371,-5.05076 0,0 0.2,3.53699 1.0102,5.05076 1.1235,2.09923 5.0508,5.05076 5.0508,5.05076 0,0 -17.4672,-0.78186 -25.2539,2.52538 -6.7064,2.84841 -16.6675,14.14214 -16.6675,14.14214 0,0 5.8956,-2.936 9.0914,-3.53553 2.4821,-0.46564 7.5761,0 7.5761,0 0,0 -12.859,8.24675 -18.18272,13.63706 -3.80975,3.85736 -9.59645,13.13198 -9.59645,13.13198 0,0 4.58957,-3.5567 7.07106,-5.05076 2.25762,-1.35927 7.07111,-3.53554 7.07111,-3.53554 0,0 -4.3238,8.33135 -7.57618,11.61676 -3.84353,3.88255 -13.63706,9.09137 -13.63706,9.09137 0,0 5.41631,-0.87522 8.08122,-1.51523 2.90084,-0.69668 8.5863,-2.52538 8.5863,-2.52538 0,0 -9.6746,10.24841 -12.12184,16.66752 -1.80822,4.74295 -1.51522,15.15228 -1.51522,15.15228 0,0 4.91574,-11.43292 9.59644,-15.15228 2.79303,-2.2194 10.10154,-3.53554 10.10154,-3.53554 0,0 -6.72192,7.17716 -8.58631,11.61676 -1.6504,3.93002 -2.0203,12.6269 -2.0203,12.6269 0,0 3.67858,-6.33641 6.06091,-9.09137 1.48156,-1.71329 5.0508,-4.54569 5.0508,-4.54569 0,0 -4.31692,9.00655 -3.53557,13.63706 0.50497,2.99283 5.05077,7.57615 5.05077,7.57615 l 3.0304,-4.54569 7.0711,27.27412 c 0,0 -0.5982,-26.50248 1.5152,-36.87057 2.3322,-11.4411 25.759,-33.33503 25.759,-33.33503 0,0 -5.2899,5.57778 -6.566,9.09137 -0.8068,2.22106 -0.505,7.07107 -0.505,7.07107 0,0 2.5645,-6.34277 4.5456,-9.09137 1.6706,-2.31786 6.061,-6.06092 6.061,-6.06092 0,0 -2.7265,6.25573 -3.0305,9.59645 -0.2461,2.70353 1.0101,8.08122 1.0101,8.08122 0,0 4.1962,-10.34933 8.0813,-14.14214 6.8455,-6.68307 25.2538,-13.63705 25.2538,-13.63705 0,0 12.684,-4.08225 26.2639,-2.02031 21.319,3.237 22.2234,9.59645 22.2234,9.59645 9.077,6.63483 15.5844,13.66595 15.1522,31.8198 z"
       id="path4136"
       inkscape:connector-curvature="0"
       sodipodi:nodetypes="scscsccsscscscscscscscscscscscscscscscscscscscscscccscscscscscscs" />
    <path
       style="fill:#502d16;fill-opacity:1;stroke:none"
       d="m 338.5865,637.90983 c 0,0 -12.4937,-8.23699 -16.1624,-5.05077 -8.0717,7.01023 -24.7052,28.97767 -32.83,45.96195 -6.4869,13.56036 -12.1218,43.43656 -12.1218,43.43656 0,0 -6.8594,-12.01196 -8.0812,-18.68783 -1.9722,-10.77598 -2.8172,-22.76808 1.5152,-32.82995 10.2653,-23.84067 48.7089,-54.24859 54.0432,-56.06347 6.6121,-2.24962 19.1928,5.05076 19.1928,5.05076 0,0 9.0447,-4.81589 13.6371,-5.05076 4.3364,-0.22178 49.7557,30.79828 62.6295,55.55839 5.472,10.52426 5.3395,23.56485 4.0406,35.35534 -2.029,18.41721 -18.1827,52.52793 -18.1827,52.52793 0,0 4.7308,-34.53166 2.0202,-47.98225 -9.2458,-45.88088 -41.6503,-71.518 -50.5076,-77.27667 -4.0714,-2.64702 -14.1421,6.06092 -14.1421,6.06092 z"
       id="path4138"
       inkscape:connector-curvature="0"
       sodipodi:nodetypes="csscssscssscsscc" />
    <path
       sodipodi:nodetypes="csscscscscscsc"
       inkscape:connector-curvature="0"
       id="path4142"
       d="m 319.9021,789.21784 c 0,0 -0.3724,-8.70423 3.0464,-8.16678 20.7938,3.26885 21.5759,2.87691 44.7382,-0.7354 7.66,-1.19462 3.0695,9.36612 3.0695,9.36612 0,0 33.9274,-0.31098 42.6369,10.35979 6.6807,8.18511 0.4436,31.69305 0.4436,31.69305 0,0 -3.7466,16.65192 -7.2812,36.49478 -4.5204,25.37693 -2.0309,32.23078 -3.5564,51.50589 7.3616,53.53958 -10.2899,45.13475 -58.0351,43.70617 -43.343,-1.29685 -57.4919,13.72543 -53.0084,-38.65541 -0.1371,-19.98116 -0.086,-31.29417 -5.8845,-57.06173 -2.694,-11.97132 -10.3129,-34.84233 -10.3129,-34.84233 0,0 -6.8703,-24.4984 4e-4,-33.15464 8.2109,-10.34478 44.1435,-10.50951 44.1435,-10.50951 z"
       style="fill:#aade87;fill-opacity:1;stroke:none" />
    <g
       id="g4150"
       transform="matrix(1.6752201,0,0,1.6752201,-1795.0311,178.71405)">
      <rect
         transform="translate(0,308.2677)"
         y="10.723734"
         x="1240.9724"
         height="16.667517"
         width="30.809652"
         id="rect4144"
         style="fill:none;stroke:#000000;stroke-opacity:1" />
      <rect
         style="fill:none;stroke:#000000;stroke-opacity:1"
         id="rect4148"
         width="30.809652"
         height="16.667517"
         x="1280.9724"
         y="318.99142" />
    </g>
    <path
       style="fill:none;stroke:#000000;stroke-width:1px;stroke-linecap:butt;stroke-linejoin:miter;stroke-opacity:1"
       d="m 335.051,727.8134 8.5863,-3.03045 7.0711,2.0203 -7.5762,-2.52538 z"
       id="path4154"
       inkscape:connector-curvature="0" />
    <path
       style="fill:#54e13a;fill-opacity:1;stroke:none"
       d="m -873.11633,837.04754 c 6.46912,2.93498 93.4124,2.12885 97.6987,-0.25254 4.93394,-2.74121 2.30761,62.67779 -2.02031,63.57142 -4.48723,0.92653 -87.60919,1.21605 -92.14286,0 -4.36709,-1.17137 -8.80652,-65.71028 -3.53553,-63.31888 z"
       id="rect4158"
       inkscape:connector-curvature="0"
       sodipodi:nodetypes="sssss" />
    <path
       style="fill:#232323;fill-opacity:1;stroke:none"
       d="m -762.98485,801.66583 c 0,0 13.60102,18.76912 16.66752,29.79951 6.60465,23.75734 2.54427,27.84326 -11.86929,37.1231 -3.8954,2.50796 -11.36422,-6.31345 -11.36422,-6.31345 0,0 3.86038,-11.78263 2.52538,-18.18275 -2.19518,-10.52388 -7.32361,-30.55711 -7.32361,-30.55711 z"
       id="path4210"
       inkscape:connector-curvature="0"
       sodipodi:nodetypes="csscscc" />
    <path
       sodipodi:type="arc"
       style="fill:#e9c6af;fill-opacity:1;fill-rule:nonzero;stroke:none"
       id="path4161"
       sodipodi:cx="169.95816"
       sodipodi:cy="292.79245"
       sodipodi:rx="13.637059"
       sodipodi:ry="14.015866"
       d="m 183.59522,292.79245 a 13.637059,14.015866 0 1 1 -27.27412,0 13.637059,14.015866 0 1 1 27.27412,0 z"
       transform="translate(-933.70063,570.36641)" />
    <path
       style="fill:#232323;fill-opacity:1;stroke:none"
       d="m -886.72854,800.40314 16.41498,8.5863 c 0,0 -8.24843,30.41105 -11.36421,41.16372 -1.71046,5.90284 6.06091,14.64721 6.06091,14.64721 l -16.66751,5.05076 c 0,0 -17.08616,-9.04143 -14.64722,-20.45559 5.63994,-26.39471 20.20305,-48.9924 20.20305,-48.9924 z"
       id="path4208"
       inkscape:connector-curvature="0"
       sodipodi:nodetypes="ccsccsc" />
    <path
       transform="translate(-1054.4139,570.61895)"
       d="m 183.59522,292.79245 a 13.637059,14.015866 0 1 1 -27.27412,0 13.637059,14.015866 0 1 1 27.27412,0 z"
       sodipodi:ry="14.015866"
       sodipodi:rx="13.637059"
       sodipodi:cy="292.79245"
       sodipodi:cx="169.95816"
       id="path4163"
       style="fill:#e9c6af;fill-opacity:1;fill-rule:nonzero;stroke:none"
       sodipodi:type="arc" />
    <path
       sodipodi:nodetypes="sssss"
       inkscape:connector-curvature="0"
       id="path4178"
       d="m -633.11633,837.04754 c 6.46912,2.93498 93.4124,2.12885 97.6987,-0.25254 4.93394,-2.74121 2.30761,62.67779 -2.02031,63.57142 -4.48723,0.92653 -87.60919,1.21605 -92.14286,0 -4.36709,-1.17137 -8.80652,-65.71028 -3.53553,-63.31888 z"
       style="fill:#0066ff;fill-opacity:1;stroke:none" />
    <path
       style="fill:#b4b4b4;fill-opacity:1;stroke:none"
       d="m -523.32616,801.16076 -6.81853,21.46574 c 0,0 7.07107,12.54837 7.07107,19.44543 0,5.91177 -6.06092,16.66752 -6.06092,16.66752 l 11.36422,11.11168 c 0,0 16.96128,-14.46008 16.66752,-26.51651 -0.35559,-14.59369 -22.22336,-42.17386 -22.22336,-42.17386 z"
       id="path4214"
       inkscape:connector-curvature="0"
       sodipodi:nodetypes="ccsccsc" />
    <path
       transform="translate(-693.70063,570.36641)"
       d="m 183.59522,292.79245 a 13.637059,14.015866 0 1 1 -27.27412,0 13.637059,14.015866 0 1 1 27.27412,0 z"
       sodipodi:ry="14.015866"
       sodipodi:rx="13.637059"
       sodipodi:cy="292.79245"
       sodipodi:cx="169.95816"
       id="path4180"
       style="fill:#deaa87;fill-opacity:1;fill-rule:nonzero;stroke:none"
       sodipodi:type="arc" />
    <path
       style="fill:#b4b4b4;fill-opacity:1;stroke:none"
       d="m -647.06984,801.41329 c 0,0 -17.21489,28.07485 -16.92006,43.6891 0.17654,9.34945 11.11168,25.75889 11.11168,25.75889 l 14.89975,-12.12183 c 0,0 -6.48017,-11.39236 -6.56599,-17.67767 -0.11049,-8.09186 7.82868,-22.98097 7.82868,-22.98097 z"
       id="path4212"
       inkscape:connector-curvature="0"
       sodipodi:nodetypes="csccscc" />
    <path
       sodipodi:type="arc"
       style="fill:#deaa87;fill-opacity:1;fill-rule:nonzero;stroke:none"
       id="path4182"
       sodipodi:cx="169.95816"
       sodipodi:cy="292.79245"
       sodipodi:rx="13.637059"
       sodipodi:ry="14.015866"
       d="m 183.59522,292.79245 a 13.637059,14.015866 0 1 1 -27.27412,0 13.637059,14.015866 0 1 1 27.27412,0 z"
       transform="translate(-814.41386,570.61895)" />
    <path
       style="fill:#54e13a;fill-opacity:1;stroke:none"
       d="m -387.11633,837.04754 c 6.46912,2.93498 93.4124,2.12885 97.6987,-0.25254 4.93394,-2.74121 2.30761,62.67779 -2.02031,63.57142 -4.48723,0.92653 -87.60919,1.21605 -92.14286,0 -4.36709,-1.17137 -8.80652,-65.71028 -3.53553,-63.31888 z"
       id="path4184"
       inkscape:connector-curvature="0"
       sodipodi:nodetypes="sssss" />
    <path
       sodipodi:type="arc"
       style="fill:#a05a2c;fill-opacity:1;fill-rule:nonzero;stroke:none"
       id="path4186"
       sodipodi:cx="169.95816"
       sodipodi:cy="292.79245"
       sodipodi:rx="13.637059"
       sodipodi:ry="14.015866"
       d="m 183.59522,292.79245 a 13.637059,14.015866 0 1 1 -27.27412,0 13.637059,14.015866 0 1 1 27.27412,0 z"
       transform="translate(-447.70063,570.36641)" />
    <path
       transform="translate(-568.41386,570.61895)"
       d="m 183.59522,292.79245 a 13.637059,14.015866 0 1 1 -27.27412,0 13.637059,14.015866 0 1 1 27.27412,0 z"
       sodipodi:ry="14.015866"
       sodipodi:rx="13.637059"
       sodipodi:cy="292.79245"
       sodipodi:cx="169.95816"
       id="path4188"
       style="fill:#a05a2c;fill-opacity:1;fill-rule:nonzero;stroke:none"
       sodipodi:type="arc" />
    <path
       sodipodi:nodetypes="sssss"
       inkscape:connector-curvature="0"
       id="path4190"
       d="m -159.11633,837.04754 c 6.46912,2.93498 93.4124,2.12885 97.6987,-0.25254 4.93394,-2.74121 2.30761,62.67779 -2.02031,63.57142 -4.48723,0.92653 -87.60919,1.21605 -92.14286,0 -4.36709,-1.17137 -8.80652,-65.71028 -3.53553,-63.31888 z"
       style="fill:#dbe3de;fill-opacity:1;stroke:none" />
    <path
       transform="translate(-219.70063,570.36641)"
       d="m 183.59522,292.79245 a 13.637059,14.015866 0 1 1 -27.27412,0 13.637059,14.015866 0 1 1 27.27412,0 z"
       sodipodi:ry="14.015866"
       sodipodi:rx="13.637059"
       sodipodi:cy="292.79245"
       sodipodi:cx="169.95816"
       id="path4192"
       style="fill:#e9c6af;fill-opacity:1;fill-rule:nonzero;stroke:none"
       sodipodi:type="arc" />
    <path
       sodipodi:type="arc"
       style="fill:#e9c6af;fill-opacity:1;fill-rule:nonzero;stroke:none"
       id="path4194"
       sodipodi:cx="169.95816"
       sodipodi:cy="292.79245"
       sodipodi:rx="13.637059"
       sodipodi:ry="14.015866"
       d="m 183.59522,292.79245 a 13.637059,14.015866 0 1 1 -27.27412,0 13.637059,14.015866 0 1 1 27.27412,0 z"
       transform="translate(-340.41386,570.61895)" />
    <path
       style="fill:#dbe3de;fill-opacity:1;stroke:none"
       d="m 68.8837,837.04754 c 6.4691,2.93498 93.4124,2.12885 97.6987,-0.25254 4.9339,-2.74121 2.3076,62.67779 -2.0203,63.57142 -4.4872,0.92653 -87.6092,1.21605 -92.1429,0 -4.3671,-1.17137 -8.8065,-65.71028 -3.5355,-63.31888 z"
       id="path4196"
       inkscape:connector-curvature="0"
       sodipodi:nodetypes="sssss" />
    <path
       style="fill:#a02c2c;fill-opacity:1;stroke:none"
       d="m 45.8948,802.42345 c 0,0 -24.85688,37.37287 -17.93021,55.55839 3.19638,8.39189 23.23351,13.63706 23.23351,13.63706 l 4.7982,-18.68783 c 0,0 -5.0792,-3.79031 -5.8084,-8.5863 -1.8749,-12.33275 11.6168,-12.37436 11.6168,-12.37436 z"
       id="path4232"
       inkscape:connector-curvature="0"
       sodipodi:nodetypes="csccscc" />
    <path
       style="fill:#a02c2c;fill-opacity:1;stroke:none"
       d="m 186.306,803.18106 c 0,0 23.8006,32.73652 19.698,50.25509 -1.9703,8.41338 -19.1929,17.42513 -19.1929,17.42513 l -10.8592,-15.65736 c 0,0 7.223,-5.51518 7.5762,-10.10153 0.8181,-10.62347 -11.3642,-19.69797 -11.3642,-19.69797 z"
       id="path4234"
       inkscape:connector-curvature="0"
       sodipodi:nodetypes="csccscc" />
    <path
       sodipodi:type="arc"
       style="fill:#e9c6af;fill-opacity:1;fill-rule:nonzero;stroke:none"
       id="path4198"
       sodipodi:cx="169.95816"
       sodipodi:cy="292.79245"
       sodipodi:rx="13.637059"
       sodipodi:ry="14.015866"
       d="m 183.59522,292.79245 a 13.637059,14.015866 0 1 1 -27.27412,0 13.637059,14.015866 0 1 1 27.27412,0 z"
       transform="translate(8.29937,570.36641)" />
    <path
       transform="translate(-112.41386,570.61895)"
       d="m 183.59522,292.79245 a 13.637059,14.015866 0 1 1 -27.27412,0 13.637059,14.015866 0 1 1 27.27412,0 z"
       sodipodi:ry="14.015866"
       sodipodi:rx="13.637059"
       sodipodi:cy="292.79245"
       sodipodi:cx="169.95816"
       id="path4200"
       style="fill:#e9c6af;fill-opacity:1;fill-rule:nonzero;stroke:none"
       sodipodi:type="arc" />
    <path
       sodipodi:nodetypes="sssss"
       inkscape:connector-curvature="0"
       id="path4202"
       d="m 294.8837,837.04754 c 6.4691,2.93498 93.4124,2.12885 97.6987,-0.25254 4.9339,-2.74121 2.3076,62.67779 -2.0203,63.57142 -4.4872,0.92653 -87.6092,1.21605 -92.1429,0 -4.3671,-1.17137 -8.8065,-65.71028 -3.5355,-63.31888 z"
       style="fill:#0066ff;fill-opacity:1;stroke:none" />
    <path
       style="fill:#aade87;fill-opacity:1;stroke:none"
       d="m 413.3378,799.64552 -7.071,30.80966 c 0,0 7.9991,13.35188 6.3134,20.20305 -0.512,2.0808 -4.5457,4.54569 -4.5457,4.54569 l 2.7779,18.94036 c 0,0 21.1231,-7.36191 23.9912,-16.66752 5.894,-19.12312 -21.4658,-57.83124 -21.4658,-57.83124 z"
       id="path4238"
       inkscape:connector-curvature="0"
       sodipodi:nodetypes="ccsccsc" />
    <path
       transform="translate(234.2994,570.36641)"
       d="m 183.59522,292.79245 a 13.637059,14.015866 0 1 1 -27.27412,0 13.637059,14.015866 0 1 1 27.27412,0 z"
       sodipodi:ry="14.015866"
       sodipodi:rx="13.637059"
       sodipodi:cy="292.79245"
       sodipodi:cx="169.95816"
       id="path4204"
       style="fill:#e9c6af;fill-opacity:1;fill-rule:nonzero;stroke:none"
       sodipodi:type="arc" />
    <path
       style="fill:#aade87;fill-opacity:1;stroke:none"
       d="m 274.6944,801.16076 c 0,0 -30.8209,39.67214 -23.2335,59.599 3.4295,9.00689 25.7589,13.13198 25.7589,13.13198 l 5.0507,-19.69797 c 0,0 -4.5092,-4.0544 -4.7982,-6.81853 -0.5999,-5.73855 6.8185,-15.90991 6.8185,-15.90991 z"
       id="path4236"
       inkscape:connector-curvature="0"
       sodipodi:nodetypes="csccscc" />
    <path
       sodipodi:type="arc"
       style="fill:#e9c6af;fill-opacity:1;fill-rule:nonzero;stroke:none"
       id="path4206"
       sodipodi:cx="169.95816"
       sodipodi:cy="292.79245"
       sodipodi:rx="13.637059"
       sodipodi:ry="14.015866"
       d="m 183.59522,292.79245 a 13.637059,14.015866 0 1 1 -27.27412,0 13.637059,14.015866 0 1 1 27.27412,0 z"
       transform="translate(113.5862,570.61895)" />
    <path
       style="fill:#a05a2c;fill-opacity:1;stroke:none"
       d="m -411.7043,810.50467 13.63706,8.33376 c 0,0 -8.80341,16.79649 -7.32361,25.00127 0.97119,5.38478 10.10153,12.12183 10.10153,12.12183 l -8.83884,13.13199 c 0,0 -17.9178,-11.14833 -19.95051,-20.70813 -2.69072,-12.65445 12.37437,-37.88072 12.37437,-37.88072 z"
       id="path4216"
       inkscape:connector-curvature="0"
       sodipodi:nodetypes="ccsccsc" />
    <path
       style="fill:#a05a2c;fill-opacity:1;stroke:none"
       d="m -268.76772,809.49451 c 0,0 14.66601,24.81637 13.38452,36.87057 -1.1716,11.02052 -17.9302,21.71828 -17.9302,21.71828 l -9.59645,-6.56599 c 0,0 9.79954,-10.89425 10.35406,-18.18275 0.64654,-8.49795 -8.5863,-25.00127 -8.5863,-25.00127 z"
       id="path4218"
       inkscape:connector-curvature="0"
       sodipodi:nodetypes="csccscc" />
    <path
       style="fill:#ffd42a;fill-opacity:1;stroke:none"
       d="m -410.18907,802.42345 -12.62691,18.94036 22.72843,15.15229 9.34391,-18.18275 z"
       id="path4220"
       inkscape:connector-curvature="0" />
    <path
       style="fill:#ffd42a;fill-opacity:1;stroke:none"
       d="m -290.23346,813.53513 20.70813,-11.11168 c 0,0 14.14213,16.16244 13.13198,15.9099 -1.01015,-0.25254 -25.00127,13.8896 -25.00127,13.8896 z"
       id="path4222"
       inkscape:connector-curvature="0" />
    <path
       style="fill:#e9c6af;fill-opacity:1;stroke:none"
       d="m -180.88444,806.7166 c 0,0 -20.33443,20.50175 -19.44544,33.33503 0.76227,11.00402 20.45559,26.01143 20.45559,26.01143 l 9.09137,-10.85914 c 0,0 -10.50294,-9.17654 -10.6066,-14.64722 -0.16127,-8.51058 14.39467,-21.97081 14.39467,-21.97081 z"
       id="path4224"
       inkscape:connector-curvature="0"
       sodipodi:nodetypes="csccscc" />
    <path
       style="fill:#e9c6af;fill-opacity:1;stroke:none"
       d="m -52.34253,816.81812 c 1.26269,-1.01015 10.6066,-8.33376 10.6066,-8.33376 0,0 21.09333,20.17899 21.2132,31.81981 0.1324,12.85784 -22.98097,24.4962 -22.98097,24.4962 l -8.33376,-9.34391 c 0,0 13.87667,-8.98221 13.63706,-16.92006 -0.22764,-7.54131 -14.14213,-21.71828 -14.14213,-21.71828 z"
       id="path4226"
       inkscape:connector-curvature="0"
       sodipodi:nodetypes="ccsccsc" />
    <path
       style="fill:#373737;fill-opacity:1;stroke:none"
       d="m -178.86414,799.64553 -19.95051,25.50635 19.69797,15.15229 17.67767,-22.4759 z"
       id="path4228"
       inkscape:connector-curvature="0"
       sodipodi:nodetypes="ccccc" />
    <path
       style="fill:#373737;fill-opacity:1;stroke:none"
       d="m -40.47324,799.39299 17.67767,25.00127 -17.67767,16.66752 -19.44544,-22.72843 z"
       id="path4230"
       inkscape:connector-curvature="0"
       sodipodi:nodetypes="ccccc" />
  </g>
</svg>
