<?xml version="1.0" encoding="UTF-8" standalone="no"?>
<!-- Created with Inkscape (http://www.inkscape.org/) -->

<svg
   xmlns:dc="http://purl.org/dc/elements/1.1/"
   xmlns:cc="http://creativecommons.org/ns#"
   xmlns:rdf="http://www.w3.org/1999/02/22-rdf-syntax-ns#"
   xmlns:svg="http://www.w3.org/2000/svg"
   xmlns="http://www.w3.org/2000/svg"
   xmlns:sodipodi="http://sodipodi.sourceforge.net/DTD/sodipodi-0.dtd"
   xmlns:inkscape="http://www.inkscape.org/namespaces/inkscape"
   width="225"
   height="455"
   id="svg2"
   version="1.1"
   inkscape:version="0.48.4 r9939"
   sodipodi:docname="chara1.svg">
  <defs
     id="defs4" />
  <sodipodi:namedview
     id="base"
     pagecolor="#ffffff"
     bordercolor="#666666"
     borderopacity="1.0"
     inkscape:pageopacity="0.0"
     inkscape:pageshadow="2"
     inkscape:zoom="0.98994949"
     inkscape:cx="337.84481"
     inkscape:cy="294.02481"
     inkscape:document-units="px"
     inkscape:current-layer="layer1"
     showgrid="false"
     showguides="true"
     inkscape:guide-bbox="true"
     inkscape:window-width="1863"
     inkscape:window-height="1056"
     inkscape:window-x="57"
     inkscape:window-y="24"
     inkscape:window-maximized="1">
    <sodipodi:guide
       orientation="0,1"
       position="550.53314,456.58895"
       id="guide4240" />
  </sodipodi:namedview>
  <metadata
     id="metadata7">
    <rdf:RDF>
      <cc:Work
         rdf:about="">
        <dc:format>image/svg+xml</dc:format>
        <dc:type
           rdf:resource="http://purl.org/dc/dcmitype/StillImage" />
        <dc:title />
      </cc:Work>
    </rdf:RDF>
  </metadata>
  <g
     inkscape:label="Ebene 1"
     inkscape:groupmode="layer"
     id="layer1"
     transform="translate(0,-597.36641)">
    <g
       id="g4055"
       transform="translate(-475.70063,419.42857)">
      <path
         transform="translate(3.5355339,303.72201)"
         d="m 664.68036,35.472473 c 0,8.647324 -7.34924,15.657365 -16.41498,15.657365 -9.06574,0 -16.41498,-7.010041 -16.41498,-15.657365 0,-8.647324 7.34924,-15.657365 16.41498,-15.657365 9.06574,0 16.41498,7.010041 16.41498,15.657365 z"
         sodipodi:ry="15.657365"
         sodipodi:rx="16.414978"
         sodipodi:cy="35.472473"
         sodipodi:cx="648.26538"
         id="path3988"
         style="fill:#502d16;fill-opacity:1;fill-rule:nonzero;stroke:none"
         sodipodi:type="arc" />
      <path
         transform="translate(0,308.2677)"
         d="m 678.82249,13.249116 c 0,6.415756 -4.97486,11.616754 -11.11167,11.616754 -6.13681,0 -11.11168,-5.200998 -11.11168,-11.616754 0,-6.4157564 4.97487,-11.6167546 11.11168,-11.6167546 6.13681,0 11.11167,5.2009982 11.11167,11.6167546 z"
         sodipodi:ry="11.616755"
         sodipodi:rx="11.111678"
         sodipodi:cy="13.249116"
         sodipodi:cx="667.71082"
         id="path3990"
         style="fill:#502d16;fill-opacity:1;fill-rule:nonzero;stroke:none"
         sodipodi:type="arc" />
      <path
         transform="translate(5.555839,303.72201)"
         d="m 561.64481,42.543541 c 0,6.973648 -7.4623,12.626906 -16.66752,12.626906 -9.20521,0 -16.66751,-5.653258 -16.66751,-12.626906 0,-6.973648 7.4623,-12.626906 16.66751,-12.626906 9.20522,0 16.66752,5.653258 16.66752,12.626906 z"
         sodipodi:ry="12.626906"
         sodipodi:rx="16.667517"
         sodipodi:cy="42.543541"
         sodipodi:cx="544.97729"
         id="path4002"
         style="fill:#502d16;fill-opacity:1;fill-rule:nonzero;stroke:none"
         sodipodi:type="arc" />
      <path
         transform="translate(4.5456865,307.25755)"
         d="m 538.41128,26.128561 c 0,10.181526 -8.59295,18.435284 -19.1929,18.435284 -10.59994,0 -19.19289,-8.253758 -19.19289,-18.435284 0,-10.181526 8.59295,-18.4352836 19.19289,-18.4352836 10.59995,0 19.1929,8.2537576 19.1929,18.4352836 z"
         sodipodi:ry="18.435284"
         sodipodi:rx="19.192898"
         sodipodi:cy="26.128561"
         sodipodi:cx="519.21838"
         id="path4004"
         style="fill:#502d16;fill-opacity:1;fill-rule:nonzero;stroke:none"
         sodipodi:type="arc" />
      <path
         transform="translate(5.555839,304.73217)"
         d="m 520.22855,-20.085918 c 0,16.1788632 -10.74119,29.2944236 -23.99112,29.2944236 -13.24993,0 -23.99113,-13.1155604 -23.99113,-29.2944236 0,-16.178864 10.7412,-29.294424 23.99113,-29.294424 13.24993,0 23.99112,13.11556 23.99112,29.294424 z"
         sodipodi:ry="29.294424"
         sodipodi:rx="23.991123"
         sodipodi:cy="-20.085918"
         sodipodi:cx="496.23743"
         id="path4008"
         style="fill:#502d16;fill-opacity:1;fill-rule:nonzero;stroke:none"
         sodipodi:type="arc" />
      <path
         transform="matrix(1.1647059,0,0,1.3375,-118.41959,312.3319)"
         d="m 697.51036,-35.238205 c 0,11.157837 -9.61054,20.203051 -21.46574,20.203051 -11.85521,0 -21.46575,-9.045214 -21.46575,-20.203051 0,-11.157837 9.61054,-20.203051 21.46575,-20.203051 11.8552,0 21.46574,9.045214 21.46574,20.203051 z"
         sodipodi:ry="20.203051"
         sodipodi:rx="21.465742"
         sodipodi:cy="-35.238205"
         sodipodi:cx="676.04462"
         id="path3994"
         style="fill:#502d16;fill-opacity:1;fill-rule:nonzero;stroke:none"
         sodipodi:type="arc" />
      <path
         transform="translate(-2.0203051,308.77278)"
         d="m 702.05604,-8.9742403 c 0,8.64732382 -7.57537,15.6573648 -16.92005,15.6573648 -9.34469,0 -16.92006,-7.01004098 -16.92006,-15.6573648 0,-8.6473237 7.57537,-15.6573647 16.92006,-15.6573647 9.34468,0 16.92005,7.010041 16.92005,15.6573647 z"
         sodipodi:ry="15.657365"
         sodipodi:rx="16.920055"
         sodipodi:cy="-8.9742403"
         sodipodi:cx="685.13599"
         id="path3992"
         style="fill:#502d16;fill-opacity:1;fill-rule:nonzero;stroke:none"
         sodipodi:type="arc" />
      <path
         transform="translate(0.50507627,305.74232)"
         d="m 678.82254,-69.83593 c 0,4.881554 -3.95728,8.838835 -8.83884,8.838835 -4.88155,0 -8.83883,-3.957281 -8.83883,-8.838835 0,-4.881554 3.95728,-8.838835 8.83883,-8.838835 4.88156,0 8.83884,3.957281 8.83884,8.838835 z"
         sodipodi:ry="8.8388348"
         sodipodi:rx="8.8388348"
         sodipodi:cy="-69.83593"
         sodipodi:cx="669.9837"
         id="path3996"
         style="fill:#502d16;fill-opacity:1;fill-rule:nonzero;stroke:none"
         sodipodi:type="arc" />
      <path
         transform="translate(-3.0304576,309.27785)"
         d="m 674.27684,-90.54406 c 0,10.460473 -10.96732,18.940361 -24.4962,18.940361 -13.52888,0 -24.4962,-8.479888 -24.4962,-18.940361 0,-10.46047 10.96732,-18.94036 24.4962,-18.94036 13.52888,0 24.4962,8.47989 24.4962,18.94036 z"
         sodipodi:ry="18.940361"
         sodipodi:rx="24.496199"
         sodipodi:cy="-90.54406"
         sodipodi:cx="649.78064"
         id="path3998"
         style="fill:#502d16;fill-opacity:1;fill-rule:nonzero;stroke:none"
         sodipodi:type="arc" />
      <path
         transform="translate(0,308.2677)"
         d="m 644.47735,-108.22173 c 0,7.11312 -7.12311,12.879442 -15.90991,12.879442 -8.78679,0 -15.9099,-5.766322 -15.9099,-12.879442 0,-7.11312 7.12311,-12.87945 15.9099,-12.87945 8.7868,0 15.90991,5.76633 15.90991,12.87945 z"
         sodipodi:ry="12.879445"
         sodipodi:rx="15.909903"
         sodipodi:cy="-108.22173"
         sodipodi:cx="628.56744"
         id="path4000"
         style="fill:#502d16;fill-opacity:1;fill-rule:nonzero;stroke:none"
         sodipodi:type="arc" />
      <path
         transform="translate(0,308.2677)"
         d="m 513.66258,12.238963 c 0,4.742081 -4.18342,8.586297 -9.34392,8.586297 -5.1605,0 -9.34391,-3.844216 -9.34391,-8.586297 0,-4.7420808 4.18341,-8.5862969 9.34391,-8.5862969 5.1605,0 9.34392,3.8442161 9.34392,8.5862969 z"
         sodipodi:ry="8.586297"
         sodipodi:rx="9.3439112"
         sodipodi:cy="12.238963"
         sodipodi:cx="504.31866"
         id="path4006"
         style="fill:#502d16;fill-opacity:1;fill-rule:nonzero;stroke:none"
         sodipodi:type="arc" />
      <path
         transform="translate(5.0507627,310.79308)"
         d="m 514.67273,-62.259789 c 0,6.834176 -5.31406,12.374369 -11.86929,12.374369 -6.55523,0 -11.8693,-5.540193 -11.8693,-12.374369 0,-6.834175 5.31407,-12.374368 11.8693,-12.374368 6.55523,0 11.86929,5.540193 11.86929,12.374368 z"
         sodipodi:ry="12.374369"
         sodipodi:rx="11.869292"
         sodipodi:cy="-62.259789"
         sodipodi:cx="502.80344"
         id="path4010"
         style="fill:#502d16;fill-opacity:1;fill-rule:nonzero;stroke:none"
         sodipodi:type="arc" />
      <path
         transform="translate(0,308.2677)"
         d="m 536.39098,-80.695068 c 0,9.763107 -8.47988,17.677669 -18.94036,17.677669 -10.46047,0 -18.94036,-7.914562 -18.94036,-17.677669 0,-9.763108 8.47989,-17.67767 18.94036,-17.67767 10.46048,0 18.94036,7.914562 18.94036,17.67767 z"
         sodipodi:ry="17.67767"
         sodipodi:rx="18.940361"
         sodipodi:cy="-80.695068"
         sodipodi:cx="517.45062"
         id="path4012"
         style="fill:#502d16;fill-opacity:1;fill-rule:nonzero;stroke:none"
         sodipodi:type="arc" />
      <path
         transform="translate(0,308.2677)"
         d="m 543.46206,-96.352432 c 0,4.463135 -3.95728,8.08122 -8.83883,8.08122 -4.88155,0 -8.83883,-3.618085 -8.83883,-8.08122 0,-4.463138 3.95728,-8.081218 8.83883,-8.081218 4.88155,0 8.83883,3.61808 8.83883,8.081218 z"
         sodipodi:ry="8.0812206"
         sodipodi:rx="8.8388348"
         sodipodi:cy="-96.352432"
         sodipodi:cx="534.62323"
         id="path4014"
         style="fill:#502d16;fill-opacity:1;fill-rule:nonzero;stroke:none"
         sodipodi:type="arc" />
      <path
         transform="translate(0.50507627,305.74232)"
         d="m 575.78697,-103.67604 c 0,8.50785 -9.04521,15.404826 -20.20305,15.404826 -11.15783,0 -20.20305,-6.896976 -20.20305,-15.404826 0,-8.50785 9.04522,-15.40483 20.20305,-15.40483 11.15784,0 20.20305,6.89698 20.20305,15.40483 z"
         sodipodi:ry="15.404826"
         sodipodi:rx="20.203051"
         sodipodi:cy="-103.67604"
         sodipodi:cx="555.58392"
         id="path4016"
         style="fill:#502d16;fill-opacity:1;fill-rule:nonzero;stroke:none"
         sodipodi:type="arc" />
      <path
         transform="translate(0,308.2677)"
         d="m 601.04076,-115.29279 c 0,8.2289 -7.1231,14.89975 -15.9099,14.89975 -8.7868,0 -15.9099,-6.67085 -15.9099,-14.89975 0,-8.22891 7.1231,-14.89975 15.9099,-14.89975 8.7868,0 15.9099,6.67084 15.9099,14.89975 z"
         sodipodi:ry="14.89975"
         sodipodi:rx="15.909903"
         sodipodi:cy="-115.29279"
         sodipodi:cx="585.13086"
         id="path4018"
         style="fill:#502d16;fill-opacity:1;fill-rule:nonzero;stroke:none"
         sodipodi:type="arc" />
      <path
         transform="translate(0,308.2677)"
         d="m 617.70829,-113.01995 c 0,5.57892 -4.74874,10.10152 -10.60661,10.10152 -5.85786,0 -10.6066,-4.5226 -10.6066,-10.10152 0,-5.57892 4.74874,-10.10153 10.6066,-10.10153 5.85787,0 10.60661,4.52261 10.60661,10.10153 z"
         sodipodi:ry="10.101525"
         sodipodi:rx="10.606602"
         sodipodi:cy="-113.01995"
         sodipodi:cx="607.10168"
         id="path4020"
         style="fill:#502d16;fill-opacity:1;fill-rule:nonzero;stroke:none"
         sodipodi:type="arc" />
    </g>
    <path
       style="fill:#502d16;fill-opacity:1;stroke:none"
       d="m 65.741132,774.7855 122.228458,-11.11168 25.25382,-86.87312 -37.37565,-57.07362 -90.913728,-9.59645 -60.10407,52.02286 5.55584,85.35789 z"
       id="path3961"
       inkscape:connector-curvature="0" />
    <rect
       y="776.44873"
       x="98.017891"
       height="28.820019"
       width="42.564953"
       id="rect3898"
       style="fill:#a05a2c;fill-opacity:1;fill-rule:nonzero;stroke:none" />
    <path
       sodipodi:nodetypes="sscs"
       inkscape:connector-curvature="0"
       id="path3900"
       d="m 43.924851,689.10188 c 1.268045,122.58408 152.586539,119.42001 150.750889,1.77354 -0.49988,-32.04002 -76.26218,-71.82836 -76.26218,-71.82836 0,0 -74.770214,42.83631 -74.488709,70.05482 z"
       style="fill:#a05a2c;fill-opacity:1;stroke:none" />
    <path
       sodipodi:type="arc"
       style="fill:#a05a2c;fill-opacity:1;fill-rule:nonzero;stroke:none"
       id="path3908"
       sodipodi:cx="453.21429"
       sodipodi:cy="350.93362"
       sodipodi:rx="16.785715"
       sodipodi:ry="16.428572"
       d="m 470.00001,350.93362 c 0,9.07325 -7.51522,16.42858 -16.78572,16.42858 -9.27049,0 -16.78571,-7.35533 -16.78571,-16.42858 0,-9.07325 7.51522,-16.42857 16.78571,-16.42857 9.2705,0 16.78572,7.35532 16.78572,16.42857 z"
       transform="matrix(0.71100785,0,0,0.71100785,-129.43503,468.14704)" />
    <path
       sodipodi:nodetypes="cccscsssccccccccssscsc"
       inkscape:connector-curvature="0"
       id="path3902"
       d="m 97.564312,789.7229 21.734138,16.07689 21.29128,-14.60279 c 0,0 37.71549,-1.82621 46.42495,8.84456 6.68068,8.18511 0.44357,31.69305 0.44357,31.69305 0,0 -3.74658,16.65192 -7.28117,36.49478 -4.52037,25.37693 -4.55632,34.75616 -6.08182,54.03127 -2.46772,31.18043 -1.75729,53.47688 -2.45522,79.87094 -0.36879,13.9468 1.12994,39.8055 1.12994,39.8055 l 4.4379,9.8537 -35.92914,0 -14.88173,-84.24944 -12.8666,0 -12.49198,84.24944 -37.699348,0 4.8797,-10.8845 c 0,0 0.74378,-25.9244 1.00638,-40.2899 0.6239,-34.13041 0.0964,-44.88041 -0.11245,-75.32528 -0.13709,-19.98116 -3.62137,-31.79925 -9.42003,-57.56681 -2.69399,-11.97132 -10.31285,-34.84233 -10.31285,-34.84233 0,0 -6.87033,-24.4984 3.5e-4,-33.15464 8.21094,-10.34478 48.18413,-10.00444 48.18413,-10.00444 z"
       style="fill:#000444;fill-opacity:1;stroke:none" />
    <path
       transform="matrix(0.6207389,0,0,0.6207389,-86.430308,497.86683)"
       d="m 280.71429,367.36218 c 0,7.10081 -5.59644,12.85715 -12.5,12.85715 -6.90355,0 -12.5,-5.75634 -12.5,-12.85715 0,-7.1008 5.59645,-12.85714 12.5,-12.85714 6.90356,0 12.5,5.75634 12.5,12.85714 z"
       sodipodi:ry="12.857142"
       sodipodi:rx="12.5"
       sodipodi:cy="367.36218"
       sodipodi:cx="268.21429"
       id="path3904"
       style="fill:#000000;fill-opacity:1;fill-rule:nonzero;stroke:none"
       sodipodi:type="arc" />
    <path
       transform="matrix(0.6207389,0,0,0.6207389,-9.7247185,497.42345)"
       sodipodi:type="arc"
       style="fill:#000000;fill-opacity:1;fill-rule:nonzero;stroke:none"
       id="path3906"
       sodipodi:cx="268.21429"
       sodipodi:cy="367.36218"
       sodipodi:rx="12.5"
       sodipodi:ry="12.857142"
       d="m 280.71429,367.36218 c 0,7.10081 -5.59644,12.85715 -12.5,12.85715 -6.90355,0 -12.5,-5.75634 -12.5,-12.85715 0,-7.1008 5.59645,-12.85714 12.5,-12.85714 6.90356,0 12.5,5.75634 12.5,12.85714 z" />
    <path
       transform="matrix(0.71100785,0,0,0.71100785,-276.9173,468.14704)"
       d="m 470.00001,350.93362 c 0,9.07325 -7.51522,16.42858 -16.78572,16.42858 -9.27049,0 -16.78571,-7.35533 -16.78571,-16.42858 0,-9.07325 7.51522,-16.42857 16.78571,-16.42857 9.2705,0 16.78572,7.35532 16.78572,16.42857 z"
       sodipodi:ry="16.428572"
       sodipodi:rx="16.785715"
       sodipodi:cy="350.93362"
       sodipodi:cx="453.21429"
       id="path3910"
       style="fill:#a05a2c;fill-opacity:1;fill-rule:nonzero;stroke:none"
       sodipodi:type="arc" />
    <g
       id="g4047"
       transform="translate(-475.70063,419.42857)">
      <path
         sodipodi:nodetypes="cscccccc"
         transform="translate(0,308.2677)"
         inkscape:connector-curvature="0"
         id="path3959"
         d="m 518.20826,-32.712825 c 0,0 17.2101,-47.536354 59.599,-42.426407 77.1262,9.297498 90.91373,53.538084 90.91373,53.538084 l 6.56599,-21.213203 -50.50763,-67.680219 -62.12438,1.51523 -45.45687,60.60915 z"
         style="fill:#502d16;fill-opacity:1;stroke:none" />
      <path
         transform="translate(0,308.2677)"
         d="m 555.07882,-67.815628 c 0,5.1605 -3.95728,9.343911 -8.83883,9.343911 -4.88155,0 -8.83883,-4.183411 -8.83883,-9.343911 0,-5.1605 3.95728,-9.343911 8.83883,-9.343911 4.88155,0 8.83883,4.183411 8.83883,9.343911 z"
         sodipodi:ry="9.3439112"
         sodipodi:rx="8.8388348"
         sodipodi:cy="-67.815628"
         sodipodi:cx="546.23999"
         id="path3974"
         style="fill:#502d16;fill-opacity:1;fill-rule:nonzero;stroke:none"
         sodipodi:type="arc" />
      <path
         transform="translate(-2.0203051,310.79308)"
         d="m 567.20065,-75.139229 c 0,3.347351 -3.16583,6.060916 -7.07107,6.060916 -3.90525,0 -7.07107,-2.713565 -7.07107,-6.060916 0,-3.347351 3.16582,-6.060915 7.07107,-6.060915 3.90524,0 7.07107,2.713564 7.07107,6.060915 z"
         sodipodi:ry="6.0609155"
         sodipodi:rx="7.0710678"
         sodipodi:cy="-75.139229"
         sodipodi:cx="560.12958"
         id="path3976"
         style="fill:#502d16;fill-opacity:1;fill-rule:nonzero;stroke:none"
         sodipodi:type="arc" />
      <path
         transform="translate(-1.5152288,302.71186)"
         d="m 642.96209,-57.96664 c 0,6.694702 -5.76633,12.12183 -12.87945,12.12183 -7.11312,0 -12.87944,-5.427128 -12.87944,-12.12183 0,-6.694703 5.76632,-12.121831 12.87944,-12.121831 7.11312,0 12.87945,5.427128 12.87945,12.121831 z"
         sodipodi:ry="12.121831"
         sodipodi:rx="12.879445"
         sodipodi:cy="-57.96664"
         sodipodi:cx="630.08264"
         id="path3978"
         style="fill:#502d16;fill-opacity:1;fill-rule:nonzero;stroke:none"
         sodipodi:type="arc" />
      <path
         transform="translate(1.5152288,308.77278)"
         d="m 642.96208,-52.663338 c 0,3.207878 -2.2613,5.808378 -5.05076,5.808378 -2.78946,0 -5.05077,-2.6005 -5.05077,-5.808378 0,-3.207878 2.26131,-5.808377 5.05077,-5.808377 2.78946,0 5.05076,2.600499 5.05076,5.808377 z"
         sodipodi:ry="5.8083773"
         sodipodi:rx="5.0507627"
         sodipodi:cy="-52.663338"
         sodipodi:cx="637.91132"
         id="path3982"
         style="fill:#502d16;fill-opacity:1;fill-rule:nonzero;stroke:none"
         sodipodi:type="arc" />
      <path
         transform="matrix(1.1935484,0,0,1.1076923,-126.26907,310.59397)"
         d="m 673.26668,-38.016125 c 0,9.065742 -7.01004,16.414978 -15.65737,16.414978 -8.64732,0 -15.65736,-7.349236 -15.65736,-16.414978 0,-9.065742 7.01004,-16.414978 15.65736,-16.414978 8.64733,0 15.65737,7.349236 15.65737,16.414978 z"
         sodipodi:ry="16.414978"
         sodipodi:rx="15.657365"
         sodipodi:cy="-38.016125"
         sodipodi:cx="657.60931"
         id="path3986"
         style="fill:#502d16;fill-opacity:1;fill-rule:nonzero;stroke:none"
         sodipodi:type="arc" />
    </g>
    <path
       style="fill:#ffd42a;fill-opacity:1;stroke:none"
       d="m 97.564312,789.7229 21.734138,16.07689 21.29128,-14.60279 c 0,0 37.71549,-1.82621 46.42495,8.84456 6.68068,8.18511 0.44357,31.69305 0.44357,31.69305 0,0 -3.74658,16.65192 -7.28117,36.49478 -4.52037,25.37693 -3.04109,34.75616 -4.56659,54.03127 2.31023,14.14379 -28.197,10.02953 -55.00442,9.36095 -26.807408,-0.66859 -59.006398,2.61358 -54.018738,-6.33049 -0.13709,-19.98116 -1.09599,-31.79925 -6.89465,-57.56681 -2.69399,-11.97132 -10.31285,-34.84233 -10.31285,-34.84233 0,0 -6.87033,-24.4984 3.5e-4,-33.15464 8.21094,-10.34478 48.18413,-10.00444 48.18413,-10.00444 z"
       id="path4074"
       inkscape:connector-curvature="0"
       sodipodi:nodetypes="cccscscscscsc" />
    <path
       style="fill:#ffe680;fill-opacity:1;stroke:none"
       d="m 119.27922,803.57484 7.57614,9.59645 19.1929,-19.19289 -4.54568,-9.59645 z"
       id="path4076"
       inkscape:connector-curvature="0"
       sodipodi:nodetypes="ccccc" />
    <path
       style="fill:#ffe680;fill-opacity:1;stroke:none"
       d="m 119.7843,803.06977 -5.55584,10.6066 -22.223358,-24.74874 5.55584,-5.55584 z"
       id="path4078"
       inkscape:connector-curvature="0" />
    <path
       sodipodi:type="arc"
       style="fill:#ffe680;fill-opacity:1;fill-rule:nonzero;stroke:none"
       id="path4080"
       sodipodi:cx="597.25269"
       sodipodi:cy="86.99025"
       sodipodi:rx="3.2829957"
       sodipodi:ry="4.0406103"
       d="m 600.53568,86.99025 c 0,2.231567 -1.46985,4.04061 -3.28299,4.04061 -1.81315,0 -3.283,-1.809043 -3.283,-4.04061 0,-2.231568 1.46985,-4.040611 3.283,-4.040611 1.81314,0 3.28299,1.809043 3.28299,4.040611 z"
       transform="matrix(0.92307692,0,0,0.75000001,-430.01065,750.45398)" />
    <path
       sodipodi:type="arc"
       style="fill:#ffe680;fill-opacity:1;fill-rule:nonzero;stroke:none"
       id="path4082"
       sodipodi:cx="598.76794"
       sodipodi:cy="97.344315"
       sodipodi:rx="3.7880721"
       sodipodi:ry="3.2829957"
       d="m 602.55602,97.344315 c 0,1.813148 -1.69598,3.282995 -3.78808,3.282995 -2.09209,0 -3.78807,-1.469847 -3.78807,-3.282995 0,-1.813149 1.69598,-3.282996 3.78807,-3.282996 2.0921,0 3.78808,1.469847 3.78808,3.282996 z"
       transform="translate(-477.21586,727.69627)" />
    <path
       style="fill:#54e13a;fill-opacity:1;stroke:none"
       d="m 70.883672,837.04754 c 6.46912,2.93498 93.412398,2.12885 97.698698,-0.25254 4.93394,-2.74121 2.30761,62.67779 -2.02031,63.57142 -4.48723,0.92653 -87.609188,1.21605 -92.142858,0 -4.36709,-1.17137 -8.80652,-65.71028 -3.53553,-63.31888 z"
       id="path4184"
       inkscape:connector-curvature="0"
       sodipodi:nodetypes="sssss" />
    <path
       sodipodi:type="arc"
       style="fill:#a05a2c;fill-opacity:1;fill-rule:nonzero;stroke:none"
       id="path4186"
       sodipodi:cx="169.95816"
       sodipodi:cy="292.79245"
       sodipodi:rx="13.637059"
       sodipodi:ry="14.015866"
       d="m 183.59522,292.79245 c 0,7.74075 -6.10552,14.01587 -13.63706,14.01587 -7.53154,0 -13.63706,-6.27512 -13.63706,-14.01587 0,-7.74075 6.10552,-14.01587 13.63706,-14.01587 7.53154,0 13.63706,6.27512 13.63706,14.01587 z"
       transform="translate(10.299372,570.36641)" />
    <path
       transform="translate(-110.41386,570.61895)"
       d="m 183.59522,292.79245 c 0,7.74075 -6.10552,14.01587 -13.63706,14.01587 -7.53154,0 -13.63706,-6.27512 -13.63706,-14.01587 0,-7.74075 6.10552,-14.01587 13.63706,-14.01587 7.53154,0 13.63706,6.27512 13.63706,14.01587 z"
       sodipodi:ry="14.015866"
       sodipodi:rx="13.637059"
       sodipodi:cy="292.79245"
       sodipodi:cx="169.95816"
       id="path4188"
       style="fill:#a05a2c;fill-opacity:1;fill-rule:nonzero;stroke:none"
       sodipodi:type="arc" />
    <path
       style="fill:#a05a2c;fill-opacity:1;stroke:none"
       d="m 46.295702,810.50467 13.63706,8.33376 c 0,0 -8.80341,16.79649 -7.32361,25.00127 0.97119,5.38478 10.10153,12.12183 10.10153,12.12183 l -8.83884,13.13199 c 0,0 -17.9178,-11.14833 -19.95051,-20.70813 -2.69072,-12.65445 12.37437,-37.88072 12.37437,-37.88072 z"
       id="path4216"
       inkscape:connector-curvature="0"
       sodipodi:nodetypes="ccsccsc" />
    <path
       style="fill:#a05a2c;fill-opacity:1;stroke:none"
       d="m 189.23228,809.49451 c 0,0 14.66601,24.81637 13.38452,36.87057 -1.1716,11.02052 -17.9302,21.71828 -17.9302,21.71828 l -9.59645,-6.56599 c 0,0 9.79954,-10.89425 10.35406,-18.18275 0.64654,-8.49795 -8.5863,-25.00127 -8.5863,-25.00127 z"
       id="path4218"
       inkscape:connector-curvature="0"
       sodipodi:nodetypes="csccscc" />
    <path
       style="fill:#ffd42a;fill-opacity:1;stroke:none"
       d="m 47.810932,802.42345 -12.62691,18.94036 22.72843,15.15229 9.34391,-18.18275 z"
       id="path4220"
       inkscape:connector-curvature="0" />
    <path
       style="fill:#ffd42a;fill-opacity:1;stroke:none"
       d="m 167.76654,813.53513 20.70813,-11.11168 c 0,0 14.14213,16.16244 13.13198,15.9099 -1.01015,-0.25254 -25.00127,13.8896 -25.00127,13.8896 z"
       id="path4222"
       inkscape:connector-curvature="0" />
  </g>
</svg>
