<?xml version="1.0" encoding="UTF-8" standalone="no"?>
<!-- Created with Inkscape (http://www.inkscape.org/) -->

<svg
   xmlns:dc="http://purl.org/dc/elements/1.1/"
   xmlns:cc="http://creativecommons.org/ns#"
   xmlns:rdf="http://www.w3.org/1999/02/22-rdf-syntax-ns#"
   xmlns:svg="http://www.w3.org/2000/svg"
   xmlns="http://www.w3.org/2000/svg"
   xmlns:sodipodi="http://sodipodi.sourceforge.net/DTD/sodipodi-0.dtd"
   xmlns:inkscape="http://www.inkscape.org/namespaces/inkscape"
   width="225"
   height="455"
   id="svg2"
   version="1.1"
   inkscape:version="0.48.4 r9939"
   sodipodi:docname="chara4.svg">
  <defs
     id="defs4" />
  <sodipodi:namedview
     id="base"
     pagecolor="#ffffff"
     bordercolor="#666666"
     borderopacity="1.0"
     inkscape:pageopacity="0.0"
     inkscape:pageshadow="2"
     inkscape:zoom="2.8"
     inkscape:cx="87.194697"
     inkscape:cy="222.76771"
     inkscape:document-units="px"
     inkscape:current-layer="layer1"
     showgrid="false"
     showguides="true"
     inkscape:guide-bbox="true"
     inkscape:window-width="931"
     inkscape:window-height="1028"
     inkscape:window-x="988"
     inkscape:window-y="24"
     inkscape:window-maximized="0">
    <sodipodi:guide
       orientation="0,1"
       position="550.53314,456.58895"
       id="guide4240" />
  </sodipodi:namedview>
  <metadata
     id="metadata7">
    <rdf:RDF>
      <cc:Work
         rdf:about="">
        <dc:format>image/svg+xml</dc:format>
        <dc:type
           rdf:resource="http://purl.org/dc/dcmitype/StillImage" />
        <dc:title></dc:title>
      </cc:Work>
    </rdf:RDF>
  </metadata>
  <g
     inkscape:label="Ebene 1"
     inkscape:groupmode="layer"
     id="layer1"
     transform="translate(0,-597.36641)">
    <path
       style="fill:#ffe162;fill-opacity:1;stroke:none"
       d="m 190.85037,659.62811 c -13.14126,-26.55025 -47.65223,-44.95879 -77.27668,-44.95179 -28.34233,0.007 -61.76506,17.97363 -72.73098,41.41625 -14.92501,31.90627 -1.69235,86.22242 28.28427,109.60155 27.61344,21.53607 69.46715,19.65091 96.97465,-2.0203 29.38159,-23.14768 41.34117,-70.52282 24.74874,-104.04571 z"
       id="path4100"
       inkscape:connector-curvature="0"
       sodipodi:nodetypes="ssssss" />
    <rect
       style="fill:#e9c6af;fill-opacity:1;fill-rule:nonzero;stroke:none"
       id="rect3945"
       width="42.564953"
       height="28.820019"
       x="94.33271"
       y="775.9436" />
    <path
       style="fill:#e9c6af;fill-opacity:1;stroke:none"
       d="m 40.239635,688.5968 c 1.268045,122.58409 152.586565,119.42001 150.750915,1.77354 -0.49988,-32.04002 -76.26218,-71.82836 -76.26218,-71.82836 0,0 -74.77024,42.83631 -74.488735,70.05482 z"
       id="path3947"
       inkscape:connector-curvature="0"
       sodipodi:nodetypes="sscs" />
    <path
       style="fill:#e9c6af;fill-opacity:1;stroke:none"
       d="m 93.87909,789.21783 21.73414,16.07689 21.29128,-14.60279 c 0,0 37.71549,-1.82621 46.42495,8.84456 6.68068,8.18511 0.44357,31.69305 0.44357,31.69305 0,0 -3.74658,16.65192 -7.28117,36.49478 -4.52037,25.37693 -4.55632,34.75616 -6.08182,54.03127 -2.46772,31.18043 -1.75729,53.47688 -2.45522,79.87101 -0.36879,13.9467 1.12994,39.8054 1.12994,39.8054 l 4.4379,9.8537 -35.92914,0 -14.88173,-84.24941 -12.8666,0 -12.49198,84.24941 -37.69935,0 4.8797,-10.8844 c 0,0 0.74378,-25.9245 1.00638,-40.29 0.6239,-34.13038 0.0964,-44.88038 -0.11245,-75.32525 -0.13709,-19.98116 -3.62137,-31.79925 -9.42003,-57.56681 -2.69399,-11.97132 -10.31285,-34.84233 -10.31285,-34.84233 0,0 -6.87033,-24.4984 3.5e-4,-33.15464 8.21094,-10.34478 48.18413,-10.00444 48.18413,-10.00444 z"
       id="path3949"
       inkscape:connector-curvature="0"
       sodipodi:nodetypes="cccscsssccccccccssscsc" />
    <path
       sodipodi:type="arc"
       style="fill:#000000;fill-opacity:1;fill-rule:nonzero;stroke:none"
       id="path3951"
       sodipodi:cx="268.21429"
       sodipodi:cy="367.36218"
       sodipodi:rx="12.5"
       sodipodi:ry="12.857142"
       d="m 280.71429,367.36218 c 0,7.10081 -5.59644,12.85715 -12.5,12.85715 -6.90355,0 -12.5,-5.75634 -12.5,-12.85715 0,-7.1008 5.59645,-12.85714 12.5,-12.85714 6.90356,0 12.5,5.75634 12.5,12.85714 z"
       transform="matrix(0.6207389,0,0,0.6207389,-90.11553,497.36175)" />
    <path
       d="m 280.71429,367.36218 c 0,7.10081 -5.59644,12.85715 -12.5,12.85715 -6.90355,0 -12.5,-5.75634 -12.5,-12.85715 0,-7.1008 5.59645,-12.85714 12.5,-12.85714 6.90356,0 12.5,5.75634 12.5,12.85714 z"
       sodipodi:ry="12.857142"
       sodipodi:rx="12.5"
       sodipodi:cy="367.36218"
       sodipodi:cx="268.21429"
       id="path3953"
       style="fill:#000000;fill-opacity:1;fill-rule:nonzero;stroke:none"
       sodipodi:type="arc"
       transform="matrix(0.6207389,0,0,0.6207389,-13.40994,496.91837)" />
    <path
       transform="matrix(0.71100785,0,0,0.71100785,-133.12025,467.64196)"
       d="m 470.00001,350.93362 c 0,9.07325 -7.51522,16.42858 -16.78572,16.42858 -9.27049,0 -16.78571,-7.35533 -16.78571,-16.42858 0,-9.07325 7.51522,-16.42857 16.78571,-16.42857 9.2705,0 16.78572,7.35532 16.78572,16.42857 z"
       sodipodi:ry="16.428572"
       sodipodi:rx="16.785715"
       sodipodi:cy="350.93362"
       sodipodi:cx="453.21429"
       id="path3955"
       style="fill:#e9c6af;fill-opacity:1;fill-rule:nonzero;stroke:none"
       sodipodi:type="arc" />
    <path
       sodipodi:type="arc"
       style="fill:#e9c6af;fill-opacity:1;fill-rule:nonzero;stroke:none"
       id="path3957"
       sodipodi:cx="453.21429"
       sodipodi:cy="350.93362"
       sodipodi:rx="16.785715"
       sodipodi:ry="16.428572"
       d="m 470.00001,350.93362 c 0,9.07325 -7.51522,16.42858 -16.78572,16.42858 -9.27049,0 -16.78571,-7.35533 -16.78571,-16.42858 0,-9.07325 7.51522,-16.42857 16.78571,-16.42857 9.2705,0 16.78572,7.35532 16.78572,16.42857 z"
       transform="matrix(0.71100785,0,0,0.71100785,-280.60252,467.64196)" />
    <path
       style="fill:#ffe162;fill-opacity:1;stroke:none"
       d="m 134.7869,645.99105 c 0,0 12.83608,4.77202 29.7995,41.92133 13.10928,28.70886 13.63706,51.0127 13.63706,51.0127 0,0 11.38264,-15.37552 13.38452,-27.77919 2.47735,-15.34971 -0.75762,-27.7792 -0.75762,-27.7792 l -8.5863,-28.28427 -68.69037,-39.39595 -69.70052,52.02286 c 0,0 -5.444,17.82975 -4.54569,26.5165 1.62071,15.67237 8.5863,28.53681 8.5863,28.53681 0,0 0.99962,-15.99755 7.82868,-36.11295 4.9292,-14.51923 14.89975,-33.0825 14.89975,-33.0825 0,0 -5.75265,9.56293 -7.3236,19.95051 -1.71977,11.37158 -0.25254,20.96067 -0.25254,20.96067 0,0 4.54785,-14.99124 31.8198,-32.82996 27.37323,-17.90495 41.59713,-16.56195 39.90103,-15.65736 z"
       id="path4098"
       inkscape:connector-curvature="0"
       sodipodi:nodetypes="cscsccccscscscsc" />
    <path
       sodipodi:nodetypes="ccccccccc"
       inkscape:connector-curvature="0"
       id="path4106"
       d="m 170.41004,921.75559 2.09047,82.39631 -46.01867,4.2023 -6.80051,-35.76207 -7.31076,0.50508 -4.91583,34.24679 -45.45033,-4.7073 3.42308,-77.85065 z"
       style="fill:#684e00;fill-opacity:1;stroke:none" />
    <path
       style="fill:#ffe162;fill-opacity:1;stroke:none"
       d="m 72.66252,767.20935 c 0,0 -23.73859,15.65737 -38.3858,34.09265 -8.67459,10.91802 -13.63706,33.0825 -13.63706,33.0825 0,0 5.7791,-11.10689 8.08122,-14.14214 1.8677,-2.46249 3.03046,-3.53553 3.03046,-3.53553 0,0 -0.97909,7.06335 -2.0203,12.12183 -0.91896,4.46455 3.53553,17.67767 3.53553,17.67767 0,0 4.93038,-22.76988 16.66752,-39.39595 9.98953,-14.15053 31.31472,-35.86042 31.31472,-35.86042 z"
       id="path4112"
       inkscape:connector-curvature="0"
       sodipodi:nodetypes="cscscscscc" />
    <path
       sodipodi:nodetypes="cscscscscscsc"
       inkscape:connector-curvature="0"
       id="path4104"
       d="m 93.87909,789.21783 c 0,0 5.04837,14.87698 21.73414,16.07689 15.60354,1.12209 21.29128,-14.60279 21.29128,-14.60279 0,0 37.71549,-1.82621 46.42495,8.84456 6.68068,8.18511 0.44357,31.69305 0.44357,31.69305 0,0 -6.78833,30.64131 -7.28117,36.49478 -2.18071,25.90033 -1.02079,35.76631 -2.54629,55.04142 -0.21514,18.68948 2.27254,12.39601 -56.01457,12.39141 -53.5089,-0.004 -59.0064,4.12881 -58.56443,-10.87618 -0.13709,-19.98116 -1.88244,-31.32565 -3.35911,-57.06173 -0.356,-6.20462 -10.31285,-34.84233 -10.31285,-34.84233 0,0 -6.87033,-24.4984 3.5e-4,-33.15464 8.21094,-10.34478 48.18413,-10.00444 48.18413,-10.00444 z"
       style="fill:#373737;fill-opacity:1;stroke:none" />
    <path
       style="fill:#241c1c;fill-opacity:1;stroke:none"
       d="m 98.92648,1051.7908 -43.94163,0 c 0,0 -1.01015,-8.4925 0.75761,-10.7184 1.76777,-2.2259 9.84899,-2.6371 9.84899,-2.6371 l -3.53553,-14.6472 42.4264,4.0406 z"
       id="path4108"
       inkscape:connector-curvature="0"
       sodipodi:nodetypes="ccscccc" />
    <path
       style="fill:#241c1c;fill-opacity:1;stroke:none"
       d="m 128.72598,1029.3439 7.57615,22.4469 41.41625,0 c 0,0 0.84179,-8.4925 -0.75761,-10.2133 -1.59941,-1.7208 -8.83884,-0.1117 -8.83884,-0.1117 l 3.03046,-16.1625 z"
       id="path4110"
       inkscape:connector-curvature="0"
       sodipodi:nodetypes="cccsccc" />
    <path
       style="fill:#e9c6af;fill-opacity:1;stroke:none"
       d="m 43.11556,806.7166 c 0,0 -21.943519,26.30956 -20.159726,39.04932 2.190842,15.64687 80.812736,19.58285 80.812736,19.58285 l -0.90863,-14.43056 c 0,0 -58.002943,-4.89083 -60.24946,-10.36151 -3.233455,-7.87406 14.39467,-21.97081 14.39467,-21.97081 z"
       id="path4224"
       inkscape:connector-curvature="0"
       sodipodi:nodetypes="csccscc" />
    <path
       style="fill:#e9c6af;fill-opacity:1;stroke:none"
       d="m 171.65747,816.81812 c 1.26269,-1.01015 10.6066,-8.33376 10.6066,-8.33376 0,0 24.26327,25.47155 21.2132,39.67695 -2.985,13.90235 -76.5524,16.63906 -76.5524,16.63906 l -0.47662,-13.98677 c 0,0 61.01953,-2.19649 60.77992,-10.13434 -0.22764,-7.54131 -15.5707,-23.86114 -15.5707,-23.86114 z"
       id="path4226"
       inkscape:connector-curvature="0"
       sodipodi:nodetypes="ccsccsc" />
    <path
       style="fill:#373737;fill-opacity:1;stroke:none"
       d="m 45.13586,799.64553 -19.95051,25.50635 19.69797,15.15229 17.67767,-22.4759 z"
       id="path4228"
       inkscape:connector-curvature="0"
       sodipodi:nodetypes="ccccc" />
    <path
       style="fill:#373737;fill-opacity:1;stroke:none"
       d="m 183.52676,799.39299 17.67767,25.00127 -17.67767,16.66752 -19.44544,-22.72843 z"
       id="path4230"
       inkscape:connector-curvature="0"
       sodipodi:nodetypes="ccccc" />
  </g>
</svg>
