<?xml version="1.0" encoding="UTF-8" standalone="no"?>
<!-- Created with Inkscape (http://www.inkscape.org/) -->

<svg
   xmlns:dc="http://purl.org/dc/elements/1.1/"
   xmlns:cc="http://creativecommons.org/ns#"
   xmlns:rdf="http://www.w3.org/1999/02/22-rdf-syntax-ns#"
   xmlns:svg="http://www.w3.org/2000/svg"
   xmlns="http://www.w3.org/2000/svg"
   xmlns:sodipodi="http://sodipodi.sourceforge.net/DTD/sodipodi-0.dtd"
   xmlns:inkscape="http://www.inkscape.org/namespaces/inkscape"
   width="225"
   height="455"
   id="svg2"
   version="1.1"
   inkscape:version="0.48.4 r9939"
   sodipodi:docname="chara5.svg">
  <defs
     id="defs4" />
  <sodipodi:namedview
     id="base"
     pagecolor="#ffffff"
     bordercolor="#666666"
     borderopacity="1.0"
     inkscape:pageopacity="0.0"
     inkscape:pageshadow="2"
     inkscape:zoom="0.98994949"
     inkscape:cx="-120.9431"
     inkscape:cy="294.02481"
     inkscape:document-units="px"
     inkscape:current-layer="layer1"
     showgrid="false"
     showguides="true"
     inkscape:guide-bbox="true"
     inkscape:window-width="1863"
     inkscape:window-height="1056"
     inkscape:window-x="57"
     inkscape:window-y="24"
     inkscape:window-maximized="1">
    <sodipodi:guide
       orientation="0,1"
       position="550.53314,456.58895"
       id="guide4240" />
  </sodipodi:namedview>
  <metadata
     id="metadata7">
    <rdf:RDF>
      <cc:Work
         rdf:about="">
        <dc:format>image/svg+xml</dc:format>
        <dc:type
           rdf:resource="http://purl.org/dc/dcmitype/StillImage" />
        <dc:title />
      </cc:Work>
    </rdf:RDF>
  </metadata>
  <g
     inkscape:label="Ebene 1"
     inkscape:groupmode="layer"
     id="layer1"
     transform="translate(0,-597.36641)">
    <rect
       y="776.44867"
       x="96.101784"
       height="28.820019"
       width="42.564953"
       id="rect4084"
       style="fill:#e9c6af;fill-opacity:1;fill-rule:nonzero;stroke:none" />
    <path
       sodipodi:nodetypes="sscs"
       inkscape:connector-curvature="0"
       id="path4086"
       d="m 42.008704,689.10188 c 1.268046,122.58408 152.586556,119.42001 150.750916,1.77354 -0.49989,-32.04002 -76.26219,-71.82836 -76.26219,-71.82836 0,0 -74.770231,42.83631 -74.488726,70.05482 z"
       style="fill:#e9c6af;fill-opacity:1;stroke:none" />
    <path
       transform="matrix(0.6207389,0,0,0.6207389,-88.34644,497.86683)"
       d="m 280.71429,367.36218 c 0,7.10081 -5.59644,12.85715 -12.5,12.85715 -6.90355,0 -12.5,-5.75634 -12.5,-12.85715 0,-7.1008 5.59645,-12.85714 12.5,-12.85714 6.90356,0 12.5,5.75634 12.5,12.85714 z"
       sodipodi:ry="12.857142"
       sodipodi:rx="12.5"
       sodipodi:cy="367.36218"
       sodipodi:cx="268.21429"
       id="path4090"
       style="fill:#000000;fill-opacity:1;fill-rule:nonzero;stroke:none"
       sodipodi:type="arc" />
    <path
       transform="matrix(0.6207389,0,0,0.6207389,-11.64085,497.42345)"
       sodipodi:type="arc"
       style="fill:#000000;fill-opacity:1;fill-rule:nonzero;stroke:none"
       id="path4092"
       sodipodi:cx="268.21429"
       sodipodi:cy="367.36218"
       sodipodi:rx="12.5"
       sodipodi:ry="12.857142"
       d="m 280.71429,367.36218 c 0,7.10081 -5.59644,12.85715 -12.5,12.85715 -6.90355,0 -12.5,-5.75634 -12.5,-12.85715 0,-7.1008 5.59645,-12.85714 12.5,-12.85714 6.90356,0 12.5,5.75634 12.5,12.85714 z" />
    <path
       sodipodi:type="arc"
       style="fill:#e9c6af;fill-opacity:1;fill-rule:nonzero;stroke:none"
       id="path4094"
       sodipodi:cx="453.21429"
       sodipodi:cy="350.93362"
       sodipodi:rx="16.785715"
       sodipodi:ry="16.428572"
       d="m 470.00001,350.93362 c 0,9.07325 -7.51522,16.42858 -16.78572,16.42858 -9.27049,0 -16.78571,-7.35533 -16.78571,-16.42858 0,-9.07325 7.51522,-16.42857 16.78571,-16.42857 9.2705,0 16.78572,7.35532 16.78572,16.42857 z"
       transform="matrix(0.71100785,0,0,0.71100785,-131.35116,468.14704)" />
    <path
       transform="matrix(0.71100785,0,0,0.71100785,-278.83343,468.14704)"
       d="m 470.00001,350.93362 c 0,9.07325 -7.51522,16.42858 -16.78572,16.42858 -9.27049,0 -16.78571,-7.35533 -16.78571,-16.42858 0,-9.07325 7.51522,-16.42857 16.78571,-16.42857 9.2705,0 16.78572,7.35532 16.78572,16.42857 z"
       sodipodi:ry="16.428572"
       sodipodi:rx="16.785715"
       sodipodi:cy="350.93362"
       sodipodi:cx="453.21429"
       id="path4096"
       style="fill:#e9c6af;fill-opacity:1;fill-rule:nonzero;stroke:none"
       sodipodi:type="arc" />
    <path
       sodipodi:nodetypes="csccccccccscc"
       inkscape:connector-curvature="0"
       id="path4088"
       d="m 172.1792,922.26067 c 0,0 -1.7573,53.47688 -2.4553,79.87103 -0.3687,13.9467 1.13,39.8054 1.13,39.8054 l 4.4379,9.8537 -35.9292,0 -14.8817,-84.24943 -12.8666,0 -12.492,84.24943 -37.6993,0 4.8797,-10.8844 c 0,0 0.7438,-25.9245 1.0064,-40.29 0.6239,-34.1304 -0.1125,-75.32527 -0.1125,-75.32527 z"
       style="fill:#483737;fill-opacity:1;stroke:none" />
    <path
       style="fill:#784421;fill-opacity:1;stroke:none"
       d="m 137.5662,1051.7908 37.3756,0 -3.0304,0 z"
       id="path4132"
       inkscape:connector-curvature="0" />
    <path
       style="fill:#87decd;fill-opacity:1;stroke:none"
       d="m 95.6482,789.72291 c 0,0 6.126,11.93701 21.7342,12.54136 16.6629,0.64518 21.2912,-11.06726 21.2912,-11.06726 0,0 37.7155,-1.82621 46.425,8.84456 6.6807,8.18511 0.4436,31.69305 0.4436,31.69305 0,0 -3.7466,16.65192 -7.2812,36.49478 -4.5204,25.37693 -7.092,71.20386 -7.092,71.20386 0,0 -16.2417,10.21094 -55.0166,9.09138 -30.2341,-0.87297 -48.9558,-9.09137 -48.9558,-9.09137 0,0 -3.6214,-45.94139 -9.42,-71.70895 -2.694,-11.97132 -10.3129,-34.84233 -10.3129,-34.84233 0,0 -6.8703,-24.4984 4e-4,-33.15464 8.2109,-10.34478 48.1841,-10.00444 48.1841,-10.00444 z"
       id="path4128"
       inkscape:connector-curvature="0"
       sodipodi:nodetypes="cscscscscscsc" />
    <path
       sodipodi:nodetypes="cscscscscscsc"
       inkscape:connector-curvature="0"
       id="path4130"
       d="m 92.6177,790.22799 c 0,0 8.1463,15.47254 23.7545,16.07689 16.6629,0.64518 26.342,-14.60279 26.342,-14.60279 0,0 33.6749,-2.33129 42.3844,8.33948 6.6807,8.18511 0.4436,31.69305 0.4436,31.69305 0,0 -3.7466,16.65192 -7.2812,36.49478 -4.5204,25.37693 -7.5971,62.61756 -7.5971,62.61756 0,0 -16.2417,10.21094 -55.0166,9.09138 -30.2341,-0.87297 -48.9558,-9.09137 -48.9558,-9.09137 0,0 -3.1163,-37.35509 -8.9149,-63.12265 -2.694,-11.97132 -10.3129,-34.84233 -10.3129,-34.84233 0,0 -6.8703,-24.4984 4e-4,-33.15464 8.2109,-10.34478 45.1536,-9.49936 45.1536,-9.49936 z"
       style="fill:#a02c2c;fill-opacity:1;stroke:none" />
    <path
       style="fill:#a05a2c;fill-opacity:1;stroke:none"
       d="m 174.4367,684.37684 -0.505,21.21321 c 0,0 4.1955,-8.86566 5.0507,-13.63706 0.9802,-5.46869 0,-16.66752 0,-16.66752 0,0 6.0292,12.10953 7.0711,18.68782 1.1074,6.99194 -4.5457,30.80966 -4.5457,30.80966 l 11.1117,-20.70813 c 0,0 1.8977,-19.75804 3.0304,-28.28427 1.0871,-8.18284 5.3019,-15.99275 5.0508,-24.24366 -0.1168,-3.83739 -3.0304,-11.11168 -3.0304,-11.11168 0,0 -0.3396,6.25298 -1.5153,9.09137 -0.5542,1.33804 -2.5254,3.53554 -2.5254,3.53554 0,0 -8.8148,-22.16835 -16.6675,-30.80966 -9.1385,-10.05613 -33.8401,-22.72843 -33.8401,-22.72843 0,0 5.0846,5.80607 7.0711,9.09137 1.0526,1.7408 2.5254,5.55584 2.5254,5.55584 0,0 -9.1612,-10.43074 -15.1523,-13.63706 -7.2004,-3.85352 -23.7386,-6.06091 -23.7386,-6.06091 0,0 5.7178,3.66252 8.0812,6.06091 1.6073,1.63108 4.0406,5.55584 4.0406,5.55584 0,0 -14.9119,-5.7089 -22.7284,-7.07107 -7.6367,-1.33084 -23.2335,-1.01015 -23.2335,-1.01015 0,0 4.3934,1.98624 6.566,3.03046 1.6965,0.81539 5.0507,2.52538 5.0507,2.52538 0,0 -6.7871,0.59405 -10.1015,0 -4.7714,-0.85521 -13.6371,-5.05076 -13.6371,-5.05076 0,0 0.2,3.53699 1.0102,5.05076 1.1235,2.09923 5.0508,5.05076 5.0508,5.05076 0,0 -17.4672,-0.78186 -25.2539,2.52538 -6.7064,2.84841 -16.6675,14.14214 -16.6675,14.14214 0,0 5.8956,-2.936 9.0914,-3.53553 2.4821,-0.46564 7.5761,0 7.5761,0 0,0 -12.859,8.24675 -18.18272,13.63706 -3.80975,3.85736 -9.59645,13.13198 -9.59645,13.13198 0,0 4.58957,-3.5567 7.07106,-5.05076 2.25762,-1.35927 7.07111,-3.53554 7.07111,-3.53554 0,0 -4.3238,8.33135 -7.57618,11.61676 -3.84353,3.88255 -13.63706,9.09137 -13.63706,9.09137 0,0 5.41631,-0.87522 8.08122,-1.51523 2.90084,-0.69668 8.5863,-2.52538 8.5863,-2.52538 0,0 -9.6746,10.24841 -12.12184,16.66752 -1.80822,4.74295 -1.51522,15.15228 -1.51522,15.15228 0,0 4.91574,-11.43292 9.59644,-15.15228 2.79303,-2.2194 10.10154,-3.53554 10.10154,-3.53554 0,0 -6.72192,7.17716 -8.58631,11.61676 -1.6504,3.93002 -2.0203,12.6269 -2.0203,12.6269 0,0 3.67858,-6.33641 6.06091,-9.09137 1.48156,-1.71329 5.0508,-4.54569 5.0508,-4.54569 0,0 -4.31692,9.00655 -3.53557,13.63706 0.50497,2.99283 5.05077,7.57615 5.05077,7.57615 l 3.0304,-4.54569 7.0711,27.27412 c 0,0 -0.5982,-26.50248 1.5152,-36.87057 2.3322,-11.4411 25.759,-33.33503 25.759,-33.33503 0,0 -5.2899,5.57778 -6.566,9.09137 -0.8068,2.22106 -0.505,7.07107 -0.505,7.07107 0,0 2.5645,-6.34277 4.5456,-9.09137 1.6706,-2.31786 6.061,-6.06092 6.061,-6.06092 0,0 -2.7265,6.25573 -3.0305,9.59645 -0.2461,2.70353 1.0101,8.08122 1.0101,8.08122 0,0 4.1962,-10.34933 8.0813,-14.14214 6.8455,-6.68307 25.2538,-13.63705 25.2538,-13.63705 0,0 12.684,-4.08225 26.2639,-2.02031 21.319,3.237 22.2234,9.59645 22.2234,9.59645 9.077,6.63483 15.5844,13.66595 15.1522,31.8198 z"
       id="path4136"
       inkscape:connector-curvature="0"
       sodipodi:nodetypes="scscsccsscscscscscscscscscscscscscscscscscscscscscccscscscscscscs" />
    <path
       style="fill:#dbe3de;fill-opacity:1;stroke:none"
       d="m 68.8837,837.04754 c 6.4691,2.93498 93.4124,2.12885 97.6987,-0.25254 4.9339,-2.74121 2.3076,62.67779 -2.0203,63.57142 -4.4872,0.92653 -87.6092,1.21605 -92.1429,0 -4.3671,-1.17137 -8.8065,-65.71028 -3.5355,-63.31888 z"
       id="path4196"
       inkscape:connector-curvature="0"
       sodipodi:nodetypes="sssss" />
    <path
       style="fill:#a02c2c;fill-opacity:1;stroke:none"
       d="m 45.8948,802.42345 c 0,0 -24.85688,37.37287 -17.93021,55.55839 3.19638,8.39189 23.23351,13.63706 23.23351,13.63706 l 4.7982,-18.68783 c 0,0 -5.0792,-3.79031 -5.8084,-8.5863 -1.8749,-12.33275 11.6168,-12.37436 11.6168,-12.37436 z"
       id="path4232"
       inkscape:connector-curvature="0"
       sodipodi:nodetypes="csccscc" />
    <path
       style="fill:#a02c2c;fill-opacity:1;stroke:none"
       d="m 186.306,803.18106 c 0,0 23.8006,32.73652 19.698,50.25509 -1.9703,8.41338 -19.1929,17.42513 -19.1929,17.42513 l -10.8592,-15.65736 c 0,0 7.223,-5.51518 7.5762,-10.10153 0.8181,-10.62347 -11.3642,-19.69797 -11.3642,-19.69797 z"
       id="path4234"
       inkscape:connector-curvature="0"
       sodipodi:nodetypes="csccscc" />
    <path
       sodipodi:type="arc"
       style="fill:#e9c6af;fill-opacity:1;fill-rule:nonzero;stroke:none"
       id="path4198"
       sodipodi:cx="169.95816"
       sodipodi:cy="292.79245"
       sodipodi:rx="13.637059"
       sodipodi:ry="14.015866"
       d="m 183.59522,292.79245 c 0,7.74075 -6.10552,14.01587 -13.63706,14.01587 -7.53154,0 -13.63706,-6.27512 -13.63706,-14.01587 0,-7.74075 6.10552,-14.01587 13.63706,-14.01587 7.53154,0 13.63706,6.27512 13.63706,14.01587 z"
       transform="translate(8.29937,570.36641)" />
    <path
       transform="translate(-112.41386,570.61895)"
       d="m 183.59522,292.79245 c 0,7.74075 -6.10552,14.01587 -13.63706,14.01587 -7.53154,0 -13.63706,-6.27512 -13.63706,-14.01587 0,-7.74075 6.10552,-14.01587 13.63706,-14.01587 7.53154,0 13.63706,6.27512 13.63706,14.01587 z"
       sodipodi:ry="14.015866"
       sodipodi:rx="13.637059"
       sodipodi:cy="292.79245"
       sodipodi:cx="169.95816"
       id="path4200"
       style="fill:#e9c6af;fill-opacity:1;fill-rule:nonzero;stroke:none"
       sodipodi:type="arc" />
  </g>
</svg>
