<?xml version="1.0" encoding="UTF-8" standalone="no"?>
<!-- Created with Inkscape (http://www.inkscape.org/) -->

<svg
   xmlns:dc="http://purl.org/dc/elements/1.1/"
   xmlns:cc="http://creativecommons.org/ns#"
   xmlns:rdf="http://www.w3.org/1999/02/22-rdf-syntax-ns#"
   xmlns:svg="http://www.w3.org/2000/svg"
   xmlns="http://www.w3.org/2000/svg"
   xmlns:sodipodi="http://sodipodi.sourceforge.net/DTD/sodipodi-0.dtd"
   xmlns:inkscape="http://www.inkscape.org/namespaces/inkscape"
   width="92"
   height="100"
   id="svg2"
   version="1.1"
   inkscape:version="0.48.4 r9939"
   sodipodi:docname="star.svg">
  <defs
     id="defs4">
    <filter
       inkscape:collect="always"
       id="filter3780"
       x="-0.18840843"
       width="1.3768169"
       y="-0.18527287"
       height="1.3705457"
       color-interpolation-filters="sRGB">
      <feGaussianBlur
         inkscape:collect="always"
         stdDeviation="59.634206"
         id="feGaussianBlur3782" />
    </filter>
    <filter
       inkscape:collect="always"
       id="filter3784"
       color-interpolation-filters="sRGB">
      <feGaussianBlur
         inkscape:collect="always"
         stdDeviation="3.830351"
         id="feGaussianBlur3786" />
    </filter>
    <filter
       inkscape:collect="always"
       id="filter3791"
       x="-0.23465794"
       width="1.4693159"
       y="-0.24559098"
       height="1.491182">
      <feGaussianBlur
         inkscape:collect="always"
         stdDeviation="8.3413506"
         id="feGaussianBlur3793" />
    </filter>
  </defs>
  <sodipodi:namedview
     id="base"
     pagecolor="#ffffff"
     bordercolor="#666666"
     borderopacity="1.0"
     inkscape:pageopacity="0.0"
     inkscape:pageshadow="2"
     inkscape:zoom="5.6"
     inkscape:cx="24.381441"
     inkscape:cy="56.732155"
     inkscape:document-units="px"
     inkscape:current-layer="layer1"
     showgrid="false"
     inkscape:window-width="1863"
     inkscape:window-height="1056"
     inkscape:window-x="57"
     inkscape:window-y="24"
     inkscape:window-maximized="1" />
  <metadata
     id="metadata7">
    <rdf:RDF>
      <cc:Work
         rdf:about="">
        <dc:format>image/svg+xml</dc:format>
        <dc:type
           rdf:resource="http://purl.org/dc/dcmitype/StillImage" />
        <dc:title />
      </cc:Work>
    </rdf:RDF>
  </metadata>
  <g
     inkscape:label="Ebene 1"
     inkscape:groupmode="layer"
     id="layer1"
     transform="translate(0,-952.36218)">
    <path
       style="fill:#0000ff;fill-opacity:1;fill-rule:nonzero;stroke:none"
       d="m 46.723429,967.001 c -5.207136,-0.0349 -10.122576,22.0672 -14.355763,25.09963 -4.233187,3.03243 -26.7631289,0.59879 -28.4054333,5.54028 -1.6423044,4.94149 17.8610253,16.46349 19.4369073,21.42649 1.575884,4.9631 -7.712206,25.6227 -3.52007,28.7115 4.192137,3.089 21.178083,-11.9113 26.385219,-11.8764 5.207136,0.035 21.998985,15.2456 26.232172,12.2132 4.233188,-3.0325 -4.764453,-23.8007 -3.122149,-28.7422 1.642305,-4.9415 21.288274,-16.2185 19.712391,-21.18162 -1.575882,-4.96307 -24.121468,-2.81866 -28.313605,-5.9076 -4.192136,-3.08892 -8.842533,-25.24835 -14.049669,-25.28328 z m -0.06122,11.203 c 3.903392,0.0262 7.387076,16.63163 10.5296,18.94716 3.142524,2.31554 20.030927,0.71791 21.212247,4.43834 1.181319,3.7204 -13.553183,12.1514 -14.784293,15.8556 -1.23111,3.7043 5.530213,19.3064 2.356916,21.5795 -3.173297,2.2733 -15.778389,-9.1259 -19.681782,-9.1521 -3.903392,-0.026 -16.631085,11.1922 -19.773609,8.8767 -3.142524,-2.3155 3.813719,-17.7979 2.6324,-21.5184 -1.181319,-3.7204 -15.801138,-12.3655 -14.570028,-16.0698 1.23111,-3.70427 18.130777,-1.8591 21.304075,-4.13228 3.173297,-2.27317 6.871082,-18.85089 10.774474,-18.82472 z"
       id="path2994"
       inkscape:connector-curvature="0" />
    <path
       inkscape:connector-curvature="0"
       id="path3017"
       d="m 47.080572,962.53671 c -5.207136,-0.0349 -10.122576,22.0672 -14.355763,25.09963 -4.233187,3.03243 -26.763129,0.59879 -28.4054334,5.54028 -1.6423044,4.94149 17.8610254,16.46348 19.4369074,21.42648 1.575884,4.9631 -7.712206,25.6227 -3.52007,28.7115 4.192137,3.089 21.178083,-11.9113 26.385219,-11.8764 5.207136,0.035 21.998985,15.2456 26.232172,12.2132 4.233188,-3.0325 -4.764453,-23.8007 -3.122149,-28.7422 1.642305,-4.9415 21.288274,-16.21849 19.712391,-21.18161 -1.575882,-4.96307 -24.121468,-2.81866 -28.313605,-5.9076 -4.192136,-3.08892 -8.842533,-25.24835 -14.049669,-25.28328 z m -0.06122,11.203 c 3.903392,0.0262 7.387076,16.63163 10.5296,18.94716 3.142524,2.31554 20.030927,0.71791 21.212247,4.43834 1.181319,3.72039 -13.553183,12.15139 -14.784293,15.85559 -1.23111,3.7043 5.530213,19.3064 2.356916,21.5795 -3.173297,2.2733 -15.778389,-9.1259 -19.681782,-9.1521 -3.903392,-0.026 -16.631085,11.1922 -19.773609,8.8767 -3.142524,-2.3155 3.813719,-17.7979 2.6324,-21.5184 -1.181319,-3.7204 -15.801138,-12.3655 -14.570028,-16.06979 1.23111,-3.70427 18.130777,-1.8591 21.304075,-4.13228 3.173297,-2.27317 6.871082,-18.85089 10.774474,-18.82472 z"
       style="fill:#0000ff;fill-opacity:1;fill-rule:nonzero;stroke:none;filter:url(#filter3791)"
       transform="matrix(0.9500512,0,0,0.9500512,2.3414755,50.11333)" />
  </g>
</svg>
