<?xml version="1.0" encoding="UTF-8" standalone="no"?>
<!-- Created with Inkscape (http://www.inkscape.org/) -->

<svg
   xmlns:dc="http://purl.org/dc/elements/1.1/"
   xmlns:cc="http://creativecommons.org/ns#"
   xmlns:rdf="http://www.w3.org/1999/02/22-rdf-syntax-ns#"
   xmlns:svg="http://www.w3.org/2000/svg"
   xmlns="http://www.w3.org/2000/svg"
   xmlns:sodipodi="http://sodipodi.sourceforge.net/DTD/sodipodi-0.dtd"
   xmlns:inkscape="http://www.inkscape.org/namespaces/inkscape"
   width="148.81889"
   height="219.68503"
   id="svg4403"
   version="1.1"
   inkscape:version="0.48.4 r9939"
   sodipodi:docname="zero.svg">
  <defs
     id="defs3">
    <filter
       inkscape:collect="always"
       id="filter4925"
       color-interpolation-filters="sRGB">
      <feGaussianBlur
         inkscape:collect="always"
         stdDeviation="0.12602539"
         id="feGaussianBlur4927" />
    </filter>
    <filter
       inkscape:collect="always"
       id="filter5069"
       x="-0.30011624"
       width="1.6002325"
       y="-0.19994837"
       height="1.3998967">
      <feGaussianBlur
         inkscape:collect="always"
         stdDeviation="2.5205075"
         id="feGaussianBlur5071" />
    </filter>
  </defs>
  <sodipodi:namedview
     inkscape:document-units="mm"
     id="base"
     pagecolor="#ffffff"
     bordercolor="#666666"
     borderopacity="1.0"
     inkscape:pageopacity="0.0"
     inkscape:pageshadow="2"
     inkscape:zoom="1.979899"
     inkscape:cx="64.608329"
     inkscape:cy="118.49771"
     inkscape:current-layer="layer1"
     showgrid="false"
     units="mm"
     inkscape:window-width="1863"
     inkscape:window-height="1056"
     inkscape:window-x="57"
     inkscape:window-y="24"
     inkscape:window-maximized="1" />
  <metadata
     id="metadata4">
    <rdf:RDF>
      <cc:Work
         rdf:about="">
        <dc:format>image/svg+xml</dc:format>
        <dc:type
           rdf:resource="http://purl.org/dc/dcmitype/StillImage" />
        <dc:title />
      </cc:Work>
    </rdf:RDF>
  </metadata>
  <g
     inkscape:label="Layer 1"
     inkscape:groupmode="layer"
     id="layer1"
     transform="translate(0,-832.67716)">
    <g
       transform="matrix(4.6425111,0,0,4.6425111,-118.63704,-2785.9794)"
       style="font-size:40px;font-style:normal;font-weight:normal;line-height:125%;letter-spacing:0px;word-spacing:0px;fill:#00ff00;fill-opacity:1;stroke:none;filter:url(#filter4925);font-family:Sans"
       id="flowRoot4409">
      <path
         d="m 41.536738,794.4179 c -2.031261,2e-5 -3.561207,1.00263 -4.589844,3.00781 -1.015632,1.99221 -1.523444,4.99351 -1.523438,9.00391 -6e-6,3.9974 0.507806,6.9987 1.523438,9.0039 1.028637,1.99219 2.558583,2.98829 4.589844,2.98828 2.044256,1e-5 3.574202,-0.99609 4.589843,-2.98828 1.028628,-2.0052 1.54295,-5.0065 1.542969,-9.0039 -1.9e-5,-4.0104 -0.514341,-7.0117 -1.542969,-9.00391 -1.015641,-2.00518 -2.545587,-3.00779 -4.589843,-3.00781 m 0,-3.125 c 3.268213,3e-5 5.7617,1.2956 7.480468,3.88672 1.731749,2.57814 2.597634,6.32814 2.597657,11.25 -2.3e-5,4.90886 -0.865908,8.65886 -2.597657,11.25 -1.718768,2.57812 -4.212255,3.86718 -7.480468,3.86718 -3.268239,0 -5.768236,-1.28906 -7.5,-3.86718 -1.718754,-2.59114 -2.578128,-6.34114 -2.578125,-11.25 -3e-6,-4.92186 0.859371,-8.67186 2.578125,-11.25 1.731764,-2.59112 4.231761,-3.88669 7.5,-3.88672"
         id="path5061"
         inkscape:connector-curvature="0" />
      <path
         inkscape:connector-curvature="0"
         id="path5063"
         d="m 41.19088,793.20739 c -2.031261,2e-5 -3.561207,1.00263 -4.589844,3.00781 -1.015632,1.99221 -1.523444,4.99351 -1.523438,9.00391 -6e-6,3.9974 0.507806,6.9987 1.523438,9.0039 1.028637,1.99219 2.558583,2.98829 4.589844,2.98828 2.044256,1e-5 3.574202,-0.99609 4.589843,-2.98828 1.028628,-2.0052 1.54295,-5.0065 1.542969,-9.0039 -1.9e-5,-4.0104 -0.514341,-7.0117 -1.542969,-9.00391 -1.015641,-2.00518 -2.545587,-3.00779 -4.589843,-3.00781 m 0,-3.125 c 3.268213,3e-5 5.7617,1.2956 7.480468,3.88672 1.731749,2.57814 2.597634,6.32814 2.597657,11.25 -2.3e-5,4.90886 -0.865908,8.65886 -2.597657,11.25 -1.718768,2.57812 -4.212255,3.86718 -7.480468,3.86718 -3.268239,0 -5.768236,-1.28906 -7.5,-3.86718 -1.718754,-2.59114 -2.578128,-6.34114 -2.578125,-11.25 -3e-6,-4.92186 0.859371,-8.67186 2.578125,-11.25 1.731764,-2.59112 4.231761,-3.88669 7.5,-3.88672"
         style="filter:url(#filter5069)" />
    </g>
  </g>
</svg>
