<?xml version="1.0" encoding="UTF-8" standalone="no"?>
<!-- Created with Inkscape (http://www.inkscape.org/) -->

<svg
   xmlns:dc="http://purl.org/dc/elements/1.1/"
   xmlns:cc="http://creativecommons.org/ns#"
   xmlns:rdf="http://www.w3.org/1999/02/22-rdf-syntax-ns#"
   xmlns:svg="http://www.w3.org/2000/svg"
   xmlns="http://www.w3.org/2000/svg"
   xmlns:sodipodi="http://sodipodi.sourceforge.net/DTD/sodipodi-0.dtd"
   xmlns:inkscape="http://www.inkscape.org/namespaces/inkscape"
   width="148.81889"
   height="219.68503"
   id="svg4403"
   version="1.1"
   inkscape:version="0.48.4 r9939"
   sodipodi:docname="zero.svg">
  <defs
     id="defs3">
    <filter
       inkscape:collect="always"
       id="filter4925"
       color-interpolation-filters="sRGB">
      <feGaussianBlur
         inkscape:collect="always"
         stdDeviation="0.12602539"
         id="feGaussianBlur4927" />
    </filter>
    <filter
       inkscape:collect="always"
       id="filter5069"
       x="-0.30011624"
       width="1.6002325"
       y="-0.19994837"
       height="1.3998967">
      <feGaussianBlur
         inkscape:collect="always"
         stdDeviation="2.5205075"
         id="feGaussianBlur5071" />
    </filter>
    <filter
       inkscape:collect="always"
       id="filter3777"
       x="-0.15005814"
       width="1.3001163"
       y="-0.099974176"
       height="1.1999484">
      <feGaussianBlur
         inkscape:collect="always"
         stdDeviation="1.2602539"
         id="feGaussianBlur3779" />
    </filter>
  </defs>
  <sodipodi:namedview
     inkscape:document-units="mm"
     id="base"
     pagecolor="#ffffff"
     bordercolor="#666666"
     borderopacity="1.0"
     inkscape:pageopacity="0.0"
     inkscape:pageshadow="2"
     inkscape:zoom="1.979899"
     inkscape:cx="-46.255912"
     inkscape:cy="118.49771"
     inkscape:current-layer="g3005"
     showgrid="false"
     units="mm"
     inkscape:window-width="1863"
     inkscape:window-height="1056"
     inkscape:window-x="57"
     inkscape:window-y="24"
     inkscape:window-maximized="1" />
  <metadata
     id="metadata4">
    <rdf:RDF>
      <cc:Work
         rdf:about="">
        <dc:format>image/svg+xml</dc:format>
        <dc:type
           rdf:resource="http://purl.org/dc/dcmitype/StillImage" />
        <dc:title />
      </cc:Work>
    </rdf:RDF>
  </metadata>
  <g
     inkscape:label="Layer 1"
     inkscape:groupmode="layer"
     id="layer1"
     transform="translate(0,-832.67716)">
    <g
       transform="matrix(5.9079477,0,0,5.9079477,-36.094755,665.21412)"
       style="font-size:40px;font-style:normal;font-weight:normal;line-height:125%;letter-spacing:0px;word-spacing:0px;fill:#00ff00;fill-opacity:1;stroke:none;font-family:Sans"
       id="flowRoot2994">
      <path
         d="m 18.777344,36.526216 c -2.031261,2.7e-5 -3.561207,1.00263 -4.589844,3.007813 -1.015632,1.992209 -1.523444,4.993508 -1.523437,9.003906 -7e-6,3.997407 0.507805,6.998706 1.523437,9.003906 1.028637,1.992191 2.558583,2.988284 4.589844,2.988282 2.044256,2e-6 3.574202,-0.996091 4.589843,-2.988282 1.028628,-2.0052 1.54295,-5.006499 1.542969,-9.003906 -1.9e-5,-4.010398 -0.514341,-7.011697 -1.542969,-9.003906 -1.015641,-2.005183 -2.545587,-3.007786 -4.589843,-3.007813 m 0,-3.125 c 3.268213,3e-5 5.7617,1.295602 7.480468,3.886719 1.731749,2.578148 2.597634,6.328145 2.597657,11.25 -2.3e-5,4.908864 -0.865908,8.65886 -2.597657,11.25 -1.718768,2.578126 -4.212255,3.867187 -7.480468,3.867188 -3.268239,-1e-6 -5.768236,-1.289062 -7.5,-3.867188 -1.7187537,-2.59114 -2.5781279,-6.341136 -2.5781252,-11.25 -2.7e-6,-4.921855 0.8593715,-8.671852 2.5781252,-11.25 1.731764,-2.591117 4.231761,-3.886689 7.5,-3.886719"
         id="path3003"
         inkscape:connector-curvature="0" />
    </g>
    <g
       id="g3005"
       style="font-size:40px;font-style:normal;font-weight:normal;line-height:125%;letter-spacing:0px;word-spacing:0px;fill:#00ff00;fill-opacity:1;stroke:none;font-family:Sans"
       transform="matrix(5.9079477,0,0,5.9079477,-36.094755,665.21412)">
      <path
         inkscape:connector-curvature="0"
         id="path3007"
         d="m 18.777344,36.526216 c -2.031261,2.7e-5 -3.561207,1.00263 -4.589844,3.007813 -1.015632,1.992209 -1.523444,4.993508 -1.523437,9.003906 -7e-6,3.997407 0.507805,6.998706 1.523437,9.003906 1.028637,1.992191 2.558583,2.988284 4.589844,2.988282 2.044256,2e-6 3.574202,-0.996091 4.589843,-2.988282 1.028628,-2.0052 1.54295,-5.006499 1.542969,-9.003906 -1.9e-5,-4.010398 -0.514341,-7.011697 -1.542969,-9.003906 -1.015641,-2.005183 -2.545587,-3.007786 -4.589843,-3.007813 m 0,-3.125 c 3.268213,3e-5 5.7617,1.295602 7.480468,3.886719 1.731749,2.578148 2.597634,6.328145 2.597657,11.25 -2.3e-5,4.908864 -0.865908,8.65886 -2.597657,11.25 -1.718768,2.578126 -4.212255,3.867187 -7.480468,3.867188 -3.268239,-1e-6 -5.768236,-1.289062 -7.5,-3.867188 -1.7187537,-2.59114 -2.5781279,-6.341136 -2.5781252,-11.25 -2.7e-6,-4.921855 0.8593715,-8.671852 2.5781252,-11.25 1.731764,-2.591117 4.231761,-3.886689 7.5,-3.886719"
         style="filter:url(#filter3777)"
         transform="matrix(1,0,0,1.0518083,0,-4.8224165)" />
    </g>
  </g>
</svg>
